<?xml version="1.0" encoding="utf-8" standalone="no"?>
<!DOCTYPE svg PUBLIC "-//W3C//DTD SVG 1.1//EN"
  "http://www.w3.org/Graphics/SVG/1.1/DTD/svg11.dtd">
<svg xmlns:xlink="http://www.w3.org/1999/xlink" width="531.5762pt" height="274.968pt" viewBox="0 0 531.5762 274.968" xmlns="http://www.w3.org/2000/svg" version="1.1">
 <metadata>
  <rdf:RDF xmlns:dc="http://purl.org/dc/elements/1.1/" xmlns:cc="http://creativecommons.org/ns#" xmlns:rdf="http://www.w3.org/1999/02/22-rdf-syntax-ns#">
   <cc:Work>
    <dc:type rdf:resource="http://purl.org/dc/dcmitype/StillImage"/>
    <dc:date>2026-07-06T16:14:32.077139</dc:date>
    <dc:format>image/svg+xml</dc:format>
    <dc:creator>
     <cc:Agent>
      <dc:title>Matplotlib v3.10.9, https://matplotlib.org/</dc:title>
     </cc:Agent>
    </dc:creator>
   </cc:Work>
  </rdf:RDF>
 </metadata>
 <defs>
  <style type="text/css">*{stroke-linejoin: round; stroke-linecap: butt}</style>
 </defs>
 <g id="figure_1">
  <g id="patch_1">
   <path d="M 0 274.968 
L 531.5762 274.968 
L 531.5762 0 
L 0 0 
z
" style="fill: #ffffff"/>
  </g>
  <g id="axes_1">
   <g id="patch_2">
    <path d="M 34.55316 116.117424 
L 138.20724 116.117424 
Q 150.20424 116.117424 150.20424 109.603224 
L 150.20424 55.926216 
Q 150.20424 49.412016 138.20724 49.412016 
L 34.55316 49.412016 
Q 22.55616 49.412016 22.55616 55.926216 
L 22.55616 109.603224 
Q 22.55616 116.117424 34.55316 116.117424 
z
" clip-path="url(#p5d6a1dea7e)" style="fill: #eaf1fe; stroke: #30343b; stroke-width: 1.25; stroke-linejoin: miter"/>
   </g>
   <g id="patch_3">
    <path d="M 188.11476 116.117424 
L 291.76884 116.117424 
Q 303.76584 116.117424 303.76584 109.603224 
L 303.76584 55.926216 
Q 303.76584 49.412016 291.76884 49.412016 
L 188.11476 49.412016 
Q 176.11776 49.412016 176.11776 55.926216 
L 176.11776 109.603224 
Q 176.11776 116.117424 188.11476 116.117424 
z
" clip-path="url(#p5d6a1dea7e)" style="fill: #fff4c2; stroke: #30343b; stroke-width: 1.25; stroke-linejoin: miter"/>
   </g>
   <g id="patch_4">
    <path d="M 341.67636 116.117424 
L 445.33044 116.117424 
Q 457.32744 116.117424 457.32744 109.603224 
L 457.32744 55.926216 
Q 457.32744 49.412016 445.33044 49.412016 
L 341.67636 49.412016 
Q 329.67936 49.412016 329.67936 55.926216 
L 329.67936 109.603224 
Q 329.67936 116.117424 341.67636 116.117424 
z
" clip-path="url(#p5d6a1dea7e)" style="fill: #ffedde; stroke: #30343b; stroke-width: 1.25; stroke-linejoin: miter"/>
   </g>
   <g id="patch_5">
    <path d="M 111.33396 207.316224 
L 224.58564 207.316224 
Q 236.58264 207.316224 236.58264 200.802024 
L 236.58264 152.336376 
Q 236.58264 145.822176 224.58564 145.822176 
L 111.33396 145.822176 
Q 99.33696 145.822176 99.33696 152.336376 
L 99.33696 200.802024 
Q 99.33696 207.316224 111.33396 207.316224 
z
" clip-path="url(#p5d6a1dea7e)" style="fill: #f4f5f7; stroke: #30343b; stroke-width: 1.25; stroke-linejoin: miter"/>
   </g>
   <g id="patch_6">
    <path d="M 279.29196 207.316224 
L 392.54364 207.316224 
Q 404.54064 207.316224 404.54064 200.802024 
L 404.54064 152.336376 
Q 404.54064 145.822176 392.54364 145.822176 
L 279.29196 145.822176 
Q 267.29496 145.822176 267.29496 152.336376 
L 267.29496 200.802024 
Q 267.29496 207.316224 279.29196 207.316224 
z
" clip-path="url(#p5d6a1dea7e)" style="fill: #d8ecbd; stroke: #30343b; stroke-width: 1.25; stroke-linejoin: miter"/>
   </g>
   <g id="patch_7">
    <path d="M 146.567005 82.76472 
Q 163.160304 82.76472 178.35606 82.76472 
" clip-path="url(#p5d6a1dea7e)" style="fill: none; stroke: #2d3748; stroke-width: 1.25; stroke-linecap: round"/>
    <path d="M 172.75606 79.96472 
L 178.35606 82.76472 
L 172.75606 85.56472 
z
" clip-path="url(#p5d6a1dea7e)" style="fill: #2d3748; stroke: #2d3748; stroke-width: 1.25; stroke-linecap: round"/>
   </g>
   <g id="patch_8">
    <path d="M 300.128605 82.76472 
Q 316.721904 82.76472 331.91766 82.76472 
" clip-path="url(#p5d6a1dea7e)" style="fill: none; stroke: #2d3748; stroke-width: 1.25; stroke-linecap: round"/>
    <path d="M 326.31766 79.96472 
L 331.91766 82.76472 
L 326.31766 85.56472 
z
" clip-path="url(#p5d6a1dea7e)" style="fill: #2d3748; stroke: #2d3748; stroke-width: 1.25; stroke-linecap: round"/>
   </g>
   <g id="patch_9">
    <path d="M 387.086352 114.402007 
Q 364.709515 130.970603 343.455847 146.707565 
" clip-path="url(#p5d6a1dea7e)" style="fill: none; stroke: #2d3748; stroke-width: 1.25; stroke-linecap: round"/>
    <path d="M 349.622618 145.625468 
L 343.455847 146.707565 
L 346.290232 141.12489 
z
" clip-path="url(#p5d6a1dea7e)" style="fill: #2d3748; stroke: #2d3748; stroke-width: 1.25; stroke-linecap: round"/>
   </g>
   <g id="patch_10">
    <path d="M 232.944526 176.5692 
Q 251.939497 176.5692 269.536926 176.5692 
" clip-path="url(#p5d6a1dea7e)" style="fill: none; stroke: #2d3748; stroke-width: 1.25; stroke-linecap: round"/>
    <path d="M 263.936926 173.7692 
L 269.536926 176.5692 
L 263.936926 179.3692 
z
" clip-path="url(#p5d6a1dea7e)" style="fill: #2d3748; stroke: #2d3748; stroke-width: 1.25; stroke-linecap: round"/>
   </g>
   <g id="patch_11">
    <path d="M 169.749392 116.393959 
Q 167.959406 130.973012 166.339728 144.164939 
" clip-path="url(#p5d6a1dea7e)" style="fill: none; stroke: #2d3748; stroke-width: 1.25; stroke-linecap: round"/>
    <path d="M 169.801292 138.947892 
L 166.339728 144.164939 
L 164.243029 138.26546 
z
" clip-path="url(#p5d6a1dea7e)" style="fill: #2d3748; stroke: #2d3748; stroke-width: 1.25; stroke-linecap: round"/>
   </g>
   <g id="line2d_1">
    <path d="M 38.3922 215.306976 
L 108.202471 215.402791 
L 114.08123 215.639646 
L 117.755455 216.025648 
L 119.95999 216.44094 
L 122.164525 217.082422 
L 123.634215 217.685988 
L 125.103905 218.472968 
L 126.573595 219.483096 
L 128.043284 220.753808 
L 129.512974 222.312458 
L 130.982664 224.166132 
L 133.187199 227.438461 
L 139.800804 238.009833 
L 141.270494 239.871242 
L 142.740184 241.437817 
L 144.209874 242.715952 
L 145.679563 243.732597 
L 147.149253 244.525034 
L 149.353788 245.379656 
L 151.558323 245.939886 
L 154.497703 246.389459 
L 155.232548 246.465587 
L 155.232548 246.465587 
" clip-path="url(#p5d6a1dea7e)" style="fill: none; stroke: #1976d2; stroke-width: 1.7; stroke-linecap: square"/>
   </g>
   <g id="line2d_2">
    <path d="M 38.3922 217.715797 
L 94.240417 218.188503 
L 101.588866 218.479176 
L 105.997936 218.860071 
L 109.672161 219.423138 
L 112.61154 220.138538 
L 114.816075 220.896914 
L 117.02061 221.902097 
L 119.225145 223.204527 
L 121.42968 224.841904 
L 123.634215 226.822745 
L 125.83875 229.109702 
L 129.512974 233.33176 
L 133.187199 237.485335 
L 135.391734 239.679502 
L 137.596269 241.549486 
L 139.800804 243.074482 
L 142.005339 244.274527 
L 144.209874 245.193122 
L 146.414408 245.882054 
L 149.353788 246.529058 
L 153.028013 247.036916 
L 155.232548 247.23543 
L 155.232548 247.23543 
" clip-path="url(#p5d6a1dea7e)" style="fill: none; stroke: #d32f2f; stroke-width: 1.7; stroke-linecap: square"/>
   </g>
   <g id="line2d_3">
    <path d="M 38.3922 246.92256 
L 158.3622 246.92256 
" clip-path="url(#p5d6a1dea7e)" style="fill: none; stroke: #1f2937; stroke-width: 0.8; stroke-linecap: square"/>
   </g>
   <g id="line2d_4">
    <path d="M 38.3922 246.92256 
L 38.3922 213.04872 
" clip-path="url(#p5d6a1dea7e)" style="fill: none; stroke: #1f2937; stroke-width: 0.8; stroke-linecap: square"/>
   </g>
   <g id="line2d_5">
    <path d="M 194.3532 215.005875 
L 265.633161 215.111771 
L 270.777075 215.320572 
L 274.4513 215.686249 
L 276.655835 216.080308 
L 278.86037 216.690291 
L 280.33006 217.265664 
L 281.79975 218.017994 
L 283.26944 218.987168 
L 284.739129 220.212013 
L 286.208819 221.723074 
L 287.678509 223.532706 
L 289.148199 225.624427 
L 291.352734 229.165291 
L 295.761804 236.422512 
L 297.231494 238.500121 
L 298.701184 240.293877 
L 300.170874 241.789082 
L 301.640563 242.999344 
L 303.110253 243.955881 
L 304.579943 244.697736 
L 306.784478 245.494172 
L 308.989013 246.014225 
L 311.193548 246.3485 
L 311.193548 246.3485 
" clip-path="url(#p5d6a1dea7e)" style="fill: none; stroke: #2e7d32; stroke-width: 1.7; stroke-linecap: square"/>
   </g>
   <g id="line2d_6">
    <path d="M 194.3532 215.90918 
L 255.345331 216.317268 
L 261.958936 216.565182 
L 266.368006 216.943311 
L 269.307385 217.39077 
L 271.51192 217.892081 
L 273.716455 218.594589 
L 275.92099 219.564054 
L 278.125525 220.871997 
L 279.595215 221.964382 
L 281.064905 223.248471 
L 283.26944 225.535912 
L 285.473974 228.205605 
L 293.557269 238.62553 
L 295.761804 240.84724 
L 297.966339 242.633839 
L 300.170874 244.009459 
L 302.375408 245.034115 
L 304.579943 245.779193 
L 306.784478 246.312089 
L 309.723858 246.788396 
L 311.193548 246.954904 
L 311.193548 246.954904 
" clip-path="url(#p5d6a1dea7e)" style="fill: none; stroke: #f57c00; stroke-width: 1.7; stroke-linecap: square"/>
   </g>
   <g id="line2d_7">
    <path d="M 194.3532 246.92256 
L 314.3232 246.92256 
" clip-path="url(#p5d6a1dea7e)" style="fill: none; stroke: #1f2937; stroke-width: 0.8; stroke-linecap: square"/>
   </g>
   <g id="line2d_8">
    <path d="M 194.3532 246.92256 
L 194.3532 213.04872 
" clip-path="url(#p5d6a1dea7e)" style="fill: none; stroke: #1f2937; stroke-width: 0.8; stroke-linecap: square"/>
   </g>
   <g id="text_1">
    <!-- Coupled PSC Degradation Model -->
    <g style="fill: #14213d" transform="translate(26.3952 22.83408) scale(0.16 -0.16)">
     <defs>
      <path id="DejaVuSans-Bold-43" d="M 4288 256 
Q 3956 84 3597 -3 
Q 3238 -91 2847 -91 
Q 1681 -91 1000 561 
Q 319 1213 319 2328 
Q 319 3447 1000 4098 
Q 1681 4750 2847 4750 
Q 3238 4750 3597 4662 
Q 3956 4575 4288 4403 
L 4288 3438 
Q 3953 3666 3628 3772 
Q 3303 3878 2944 3878 
Q 2300 3878 1931 3465 
Q 1563 3053 1563 2328 
Q 1563 1606 1931 1193 
Q 2300 781 2944 781 
Q 3303 781 3628 887 
Q 3953 994 4288 1222 
L 4288 256 
z
" transform="scale(0.015625)"/>
      <path id="DejaVuSans-Bold-6f" d="M 2203 2784 
Q 1831 2784 1636 2517 
Q 1441 2250 1441 1747 
Q 1441 1244 1636 976 
Q 1831 709 2203 709 
Q 2569 709 2762 976 
Q 2956 1244 2956 1747 
Q 2956 2250 2762 2517 
Q 2569 2784 2203 2784 
z
M 2203 3584 
Q 3106 3584 3614 3096 
Q 4122 2609 4122 1747 
Q 4122 884 3614 396 
Q 3106 -91 2203 -91 
Q 1297 -91 786 396 
Q 275 884 275 1747 
Q 275 2609 786 3096 
Q 1297 3584 2203 3584 
z
" transform="scale(0.015625)"/>
      <path id="DejaVuSans-Bold-75" d="M 500 1363 
L 500 3500 
L 1625 3500 
L 1625 3150 
Q 1625 2866 1622 2436 
Q 1619 2006 1619 1863 
Q 1619 1441 1641 1255 
Q 1663 1069 1716 984 
Q 1784 875 1895 815 
Q 2006 756 2150 756 
Q 2500 756 2700 1025 
Q 2900 1294 2900 1772 
L 2900 3500 
L 4019 3500 
L 4019 0 
L 2900 0 
L 2900 506 
Q 2647 200 2364 54 
Q 2081 -91 1741 -91 
Q 1134 -91 817 281 
Q 500 653 500 1363 
z
" transform="scale(0.015625)"/>
      <path id="DejaVuSans-Bold-70" d="M 1656 506 
L 1656 -1331 
L 538 -1331 
L 538 3500 
L 1656 3500 
L 1656 2988 
Q 1888 3294 2169 3439 
Q 2450 3584 2816 3584 
Q 3463 3584 3878 3070 
Q 4294 2556 4294 1747 
Q 4294 938 3878 423 
Q 3463 -91 2816 -91 
Q 2450 -91 2169 54 
Q 1888 200 1656 506 
z
M 2400 2772 
Q 2041 2772 1848 2508 
Q 1656 2244 1656 1747 
Q 1656 1250 1848 986 
Q 2041 722 2400 722 
Q 2759 722 2948 984 
Q 3138 1247 3138 1747 
Q 3138 2247 2948 2509 
Q 2759 2772 2400 2772 
z
" transform="scale(0.015625)"/>
      <path id="DejaVuSans-Bold-6c" d="M 538 4863 
L 1656 4863 
L 1656 0 
L 538 0 
L 538 4863 
z
" transform="scale(0.015625)"/>
      <path id="DejaVuSans-Bold-65" d="M 4031 1759 
L 4031 1441 
L 1416 1441 
Q 1456 1047 1700 850 
Q 1944 653 2381 653 
Q 2734 653 3104 758 
Q 3475 863 3866 1075 
L 3866 213 
Q 3469 63 3072 -14 
Q 2675 -91 2278 -91 
Q 1328 -91 801 392 
Q 275 875 275 1747 
Q 275 2603 792 3093 
Q 1309 3584 2216 3584 
Q 3041 3584 3536 3087 
Q 4031 2591 4031 1759 
z
M 2881 2131 
Q 2881 2450 2695 2645 
Q 2509 2841 2209 2841 
Q 1884 2841 1681 2658 
Q 1478 2475 1428 2131 
L 2881 2131 
z
" transform="scale(0.015625)"/>
      <path id="DejaVuSans-Bold-64" d="M 2919 2988 
L 2919 4863 
L 4044 4863 
L 4044 0 
L 2919 0 
L 2919 506 
Q 2688 197 2409 53 
Q 2131 -91 1766 -91 
Q 1119 -91 703 423 
Q 288 938 288 1747 
Q 288 2556 703 3070 
Q 1119 3584 1766 3584 
Q 2128 3584 2408 3439 
Q 2688 3294 2919 2988 
z
M 2181 722 
Q 2541 722 2730 984 
Q 2919 1247 2919 1747 
Q 2919 2247 2730 2509 
Q 2541 2772 2181 2772 
Q 1825 2772 1636 2509 
Q 1447 2247 1447 1747 
Q 1447 1247 1636 984 
Q 1825 722 2181 722 
z
" transform="scale(0.015625)"/>
      <path id="DejaVuSans-Bold-20" transform="scale(0.015625)"/>
      <path id="DejaVuSans-Bold-50" d="M 588 4666 
L 2584 4666 
Q 3475 4666 3951 4270 
Q 4428 3875 4428 3144 
Q 4428 2409 3951 2014 
Q 3475 1619 2584 1619 
L 1791 1619 
L 1791 0 
L 588 0 
L 588 4666 
z
M 1791 3794 
L 1791 2491 
L 2456 2491 
Q 2806 2491 2997 2661 
Q 3188 2831 3188 3144 
Q 3188 3456 2997 3625 
Q 2806 3794 2456 3794 
L 1791 3794 
z
" transform="scale(0.015625)"/>
      <path id="DejaVuSans-Bold-53" d="M 3834 4519 
L 3834 3531 
Q 3450 3703 3084 3790 
Q 2719 3878 2394 3878 
Q 1963 3878 1756 3759 
Q 1550 3641 1550 3391 
Q 1550 3203 1689 3098 
Q 1828 2994 2194 2919 
L 2706 2816 
Q 3484 2659 3812 2340 
Q 4141 2022 4141 1434 
Q 4141 663 3683 286 
Q 3225 -91 2284 -91 
Q 1841 -91 1394 -6 
Q 947 78 500 244 
L 500 1259 
Q 947 1022 1364 901 
Q 1781 781 2169 781 
Q 2563 781 2772 912 
Q 2981 1044 2981 1288 
Q 2981 1506 2839 1625 
Q 2697 1744 2272 1838 
L 1806 1941 
Q 1106 2091 782 2419 
Q 459 2747 459 3303 
Q 459 4000 909 4375 
Q 1359 4750 2203 4750 
Q 2588 4750 2994 4692 
Q 3400 4634 3834 4519 
z
" transform="scale(0.015625)"/>
      <path id="DejaVuSans-Bold-44" d="M 1791 3756 
L 1791 909 
L 2222 909 
Q 2959 909 3348 1275 
Q 3738 1641 3738 2338 
Q 3738 3031 3350 3393 
Q 2963 3756 2222 3756 
L 1791 3756 
z
M 588 4666 
L 1856 4666 
Q 2919 4666 3439 4514 
Q 3959 4363 4331 4000 
Q 4659 3684 4818 3271 
Q 4978 2859 4978 2338 
Q 4978 1809 4818 1395 
Q 4659 981 4331 666 
Q 3956 303 3431 151 
Q 2906 0 1856 0 
L 588 0 
L 588 4666 
z
" transform="scale(0.015625)"/>
      <path id="DejaVuSans-Bold-67" d="M 2919 594 
Q 2688 288 2409 144 
Q 2131 0 1766 0 
Q 1125 0 706 504 
Q 288 1009 288 1791 
Q 288 2575 706 3076 
Q 1125 3578 1766 3578 
Q 2131 3578 2409 3434 
Q 2688 3291 2919 2981 
L 2919 3500 
L 4044 3500 
L 4044 353 
Q 4044 -491 3511 -936 
Q 2978 -1381 1966 -1381 
Q 1638 -1381 1331 -1331 
Q 1025 -1281 716 -1178 
L 716 -306 
Q 1009 -475 1290 -558 
Q 1572 -641 1856 -641 
Q 2406 -641 2662 -400 
Q 2919 -159 2919 353 
L 2919 594 
z
M 2181 2772 
Q 1834 2772 1640 2515 
Q 1447 2259 1447 1791 
Q 1447 1309 1634 1061 
Q 1822 813 2181 813 
Q 2531 813 2725 1069 
Q 2919 1325 2919 1791 
Q 2919 2259 2725 2515 
Q 2531 2772 2181 2772 
z
" transform="scale(0.015625)"/>
      <path id="DejaVuSans-Bold-72" d="M 3138 2547 
Q 2991 2616 2845 2648 
Q 2700 2681 2553 2681 
Q 2122 2681 1889 2404 
Q 1656 2128 1656 1613 
L 1656 0 
L 538 0 
L 538 3500 
L 1656 3500 
L 1656 2925 
Q 1872 3269 2151 3426 
Q 2431 3584 2822 3584 
Q 2878 3584 2943 3579 
Q 3009 3575 3134 3559 
L 3138 2547 
z
" transform="scale(0.015625)"/>
      <path id="DejaVuSans-Bold-61" d="M 2106 1575 
Q 1756 1575 1579 1456 
Q 1403 1338 1403 1106 
Q 1403 894 1545 773 
Q 1688 653 1941 653 
Q 2256 653 2472 879 
Q 2688 1106 2688 1447 
L 2688 1575 
L 2106 1575 
z
M 3816 1997 
L 3816 0 
L 2688 0 
L 2688 519 
Q 2463 200 2181 54 
Q 1900 -91 1497 -91 
Q 953 -91 614 226 
Q 275 544 275 1050 
Q 275 1666 698 1953 
Q 1122 2241 2028 2241 
L 2688 2241 
L 2688 2328 
Q 2688 2594 2478 2717 
Q 2269 2841 1825 2841 
Q 1466 2841 1156 2769 
Q 847 2697 581 2553 
L 581 3406 
Q 941 3494 1303 3539 
Q 1666 3584 2028 3584 
Q 2975 3584 3395 3211 
Q 3816 2838 3816 1997 
z
" transform="scale(0.015625)"/>
      <path id="DejaVuSans-Bold-74" d="M 1759 4494 
L 1759 3500 
L 2913 3500 
L 2913 2700 
L 1759 2700 
L 1759 1216 
Q 1759 972 1856 886 
Q 1953 800 2241 800 
L 2816 800 
L 2816 0 
L 1856 0 
Q 1194 0 917 276 
Q 641 553 641 1216 
L 641 2700 
L 84 2700 
L 84 3500 
L 641 3500 
L 641 4494 
L 1759 4494 
z
" transform="scale(0.015625)"/>
      <path id="DejaVuSans-Bold-69" d="M 538 3500 
L 1656 3500 
L 1656 0 
L 538 0 
L 538 3500 
z
M 538 4863 
L 1656 4863 
L 1656 3950 
L 538 3950 
L 538 4863 
z
" transform="scale(0.015625)"/>
      <path id="DejaVuSans-Bold-6e" d="M 4056 2131 
L 4056 0 
L 2931 0 
L 2931 347 
L 2931 1631 
Q 2931 2084 2911 2256 
Q 2891 2428 2841 2509 
Q 2775 2619 2662 2680 
Q 2550 2741 2406 2741 
Q 2056 2741 1856 2470 
Q 1656 2200 1656 1722 
L 1656 0 
L 538 0 
L 538 3500 
L 1656 3500 
L 1656 2988 
Q 1909 3294 2193 3439 
Q 2478 3584 2822 3584 
Q 3428 3584 3742 3212 
Q 4056 2841 4056 2131 
z
" transform="scale(0.015625)"/>
      <path id="DejaVuSans-Bold-4d" d="M 588 4666 
L 2119 4666 
L 3181 2169 
L 4250 4666 
L 5778 4666 
L 5778 0 
L 4641 0 
L 4641 3413 
L 3566 897 
L 2803 897 
L 1728 3413 
L 1728 0 
L 588 0 
L 588 4666 
z
" transform="scale(0.015625)"/>
     </defs>
     <use xlink:href="#DejaVuSans-Bold-43"/>
     <use xlink:href="#DejaVuSans-Bold-6f" transform="translate(73.388672 0)"/>
     <use xlink:href="#DejaVuSans-Bold-75" transform="translate(142.089844 0)"/>
     <use xlink:href="#DejaVuSans-Bold-70" transform="translate(213.28125 0)"/>
     <use xlink:href="#DejaVuSans-Bold-6c" transform="translate(284.863281 0)"/>
     <use xlink:href="#DejaVuSans-Bold-65" transform="translate(319.140625 0)"/>
     <use xlink:href="#DejaVuSans-Bold-64" transform="translate(386.962891 0)"/>
     <use xlink:href="#DejaVuSans-Bold-20" transform="translate(458.544922 0)"/>
     <use xlink:href="#DejaVuSans-Bold-50" transform="translate(493.359375 0)"/>
     <use xlink:href="#DejaVuSans-Bold-53" transform="translate(566.650391 0)"/>
     <use xlink:href="#DejaVuSans-Bold-43" transform="translate(638.671875 0)"/>
     <use xlink:href="#DejaVuSans-Bold-20" transform="translate(712.060547 0)"/>
     <use xlink:href="#DejaVuSans-Bold-44" transform="translate(746.875 0)"/>
     <use xlink:href="#DejaVuSans-Bold-65" transform="translate(829.882812 0)"/>
     <use xlink:href="#DejaVuSans-Bold-67" transform="translate(897.705078 0)"/>
     <use xlink:href="#DejaVuSans-Bold-72" transform="translate(969.287109 0)"/>
     <use xlink:href="#DejaVuSans-Bold-61" transform="translate(1018.603516 0)"/>
     <use xlink:href="#DejaVuSans-Bold-64" transform="translate(1086.083984 0)"/>
     <use xlink:href="#DejaVuSans-Bold-61" transform="translate(1157.666016 0)"/>
     <use xlink:href="#DejaVuSans-Bold-74" transform="translate(1225.146484 0)"/>
     <use xlink:href="#DejaVuSans-Bold-69" transform="translate(1272.949219 0)"/>
     <use xlink:href="#DejaVuSans-Bold-6f" transform="translate(1307.226562 0)"/>
     <use xlink:href="#DejaVuSans-Bold-6e" transform="translate(1375.927734 0)"/>
     <use xlink:href="#DejaVuSans-Bold-20" transform="translate(1447.119141 0)"/>
     <use xlink:href="#DejaVuSans-Bold-4d" transform="translate(1481.933594 0)"/>
     <use xlink:href="#DejaVuSans-Bold-6f" transform="translate(1581.445312 0)"/>
     <use xlink:href="#DejaVuSans-Bold-64" transform="translate(1650.146484 0)"/>
     <use xlink:href="#DejaVuSans-Bold-65" transform="translate(1721.728516 0)"/>
     <use xlink:href="#DejaVuSans-Bold-6c" transform="translate(1789.550781 0)"/>
    </g>
   </g>
   <g id="text_2">
    <!-- Drift-diffusion, mobile-ion redistribution, trap formation, and resistive aging are solved as one COMSOL workflow. -->
    <g style="fill: #3a3a3a" transform="translate(26.3952 34.55964) scale(0.088 -0.088)">
     <defs>
      <path id="DejaVuSans-44" d="M 1259 4147 
L 1259 519 
L 2022 519 
Q 2988 519 3436 956 
Q 3884 1394 3884 2338 
Q 3884 3275 3436 3711 
Q 2988 4147 2022 4147 
L 1259 4147 
z
M 628 4666 
L 1925 4666 
Q 3281 4666 3915 4102 
Q 4550 3538 4550 2338 
Q 4550 1131 3912 565 
Q 3275 0 1925 0 
L 628 0 
L 628 4666 
z
" transform="scale(0.015625)"/>
      <path id="DejaVuSans-72" d="M 2631 2963 
Q 2534 3019 2420 3045 
Q 2306 3072 2169 3072 
Q 1681 3072 1420 2755 
Q 1159 2438 1159 1844 
L 1159 0 
L 581 0 
L 581 3500 
L 1159 3500 
L 1159 2956 
Q 1341 3275 1631 3429 
Q 1922 3584 2338 3584 
Q 2397 3584 2469 3576 
Q 2541 3569 2628 3553 
L 2631 2963 
z
" transform="scale(0.015625)"/>
      <path id="DejaVuSans-69" d="M 603 3500 
L 1178 3500 
L 1178 0 
L 603 0 
L 603 3500 
z
M 603 4863 
L 1178 4863 
L 1178 4134 
L 603 4134 
L 603 4863 
z
" transform="scale(0.015625)"/>
      <path id="DejaVuSans-66" d="M 2375 4863 
L 2375 4384 
L 1825 4384 
Q 1516 4384 1395 4259 
Q 1275 4134 1275 3809 
L 1275 3500 
L 2222 3500 
L 2222 3053 
L 1275 3053 
L 1275 0 
L 697 0 
L 697 3053 
L 147 3053 
L 147 3500 
L 697 3500 
L 697 3744 
Q 697 4328 969 4595 
Q 1241 4863 1831 4863 
L 2375 4863 
z
" transform="scale(0.015625)"/>
      <path id="DejaVuSans-74" d="M 1172 4494 
L 1172 3500 
L 2356 3500 
L 2356 3053 
L 1172 3053 
L 1172 1153 
Q 1172 725 1289 603 
Q 1406 481 1766 481 
L 2356 481 
L 2356 0 
L 1766 0 
Q 1100 0 847 248 
Q 594 497 594 1153 
L 594 3053 
L 172 3053 
L 172 3500 
L 594 3500 
L 594 4494 
L 1172 4494 
z
" transform="scale(0.015625)"/>
      <path id="DejaVuSans-2d" d="M 313 2009 
L 1997 2009 
L 1997 1497 
L 313 1497 
L 313 2009 
z
" transform="scale(0.015625)"/>
      <path id="DejaVuSans-64" d="M 2906 2969 
L 2906 4863 
L 3481 4863 
L 3481 0 
L 2906 0 
L 2906 525 
Q 2725 213 2448 61 
Q 2172 -91 1784 -91 
Q 1150 -91 751 415 
Q 353 922 353 1747 
Q 353 2572 751 3078 
Q 1150 3584 1784 3584 
Q 2172 3584 2448 3432 
Q 2725 3281 2906 2969 
z
M 947 1747 
Q 947 1113 1208 752 
Q 1469 391 1925 391 
Q 2381 391 2643 752 
Q 2906 1113 2906 1747 
Q 2906 2381 2643 2742 
Q 2381 3103 1925 3103 
Q 1469 3103 1208 2742 
Q 947 2381 947 1747 
z
" transform="scale(0.015625)"/>
      <path id="DejaVuSans-75" d="M 544 1381 
L 544 3500 
L 1119 3500 
L 1119 1403 
Q 1119 906 1312 657 
Q 1506 409 1894 409 
Q 2359 409 2629 706 
Q 2900 1003 2900 1516 
L 2900 3500 
L 3475 3500 
L 3475 0 
L 2900 0 
L 2900 538 
Q 2691 219 2414 64 
Q 2138 -91 1772 -91 
Q 1169 -91 856 284 
Q 544 659 544 1381 
z
M 1991 3584 
L 1991 3584 
z
" transform="scale(0.015625)"/>
      <path id="DejaVuSans-73" d="M 2834 3397 
L 2834 2853 
Q 2591 2978 2328 3040 
Q 2066 3103 1784 3103 
Q 1356 3103 1142 2972 
Q 928 2841 928 2578 
Q 928 2378 1081 2264 
Q 1234 2150 1697 2047 
L 1894 2003 
Q 2506 1872 2764 1633 
Q 3022 1394 3022 966 
Q 3022 478 2636 193 
Q 2250 -91 1575 -91 
Q 1294 -91 989 -36 
Q 684 19 347 128 
L 347 722 
Q 666 556 975 473 
Q 1284 391 1588 391 
Q 1994 391 2212 530 
Q 2431 669 2431 922 
Q 2431 1156 2273 1281 
Q 2116 1406 1581 1522 
L 1381 1569 
Q 847 1681 609 1914 
Q 372 2147 372 2553 
Q 372 3047 722 3315 
Q 1072 3584 1716 3584 
Q 2034 3584 2315 3537 
Q 2597 3491 2834 3397 
z
" transform="scale(0.015625)"/>
      <path id="DejaVuSans-6f" d="M 1959 3097 
Q 1497 3097 1228 2736 
Q 959 2375 959 1747 
Q 959 1119 1226 758 
Q 1494 397 1959 397 
Q 2419 397 2687 759 
Q 2956 1122 2956 1747 
Q 2956 2369 2687 2733 
Q 2419 3097 1959 3097 
z
M 1959 3584 
Q 2709 3584 3137 3096 
Q 3566 2609 3566 1747 
Q 3566 888 3137 398 
Q 2709 -91 1959 -91 
Q 1206 -91 779 398 
Q 353 888 353 1747 
Q 353 2609 779 3096 
Q 1206 3584 1959 3584 
z
" transform="scale(0.015625)"/>
      <path id="DejaVuSans-6e" d="M 3513 2113 
L 3513 0 
L 2938 0 
L 2938 2094 
Q 2938 2591 2744 2837 
Q 2550 3084 2163 3084 
Q 1697 3084 1428 2787 
Q 1159 2491 1159 1978 
L 1159 0 
L 581 0 
L 581 3500 
L 1159 3500 
L 1159 2956 
Q 1366 3272 1645 3428 
Q 1925 3584 2291 3584 
Q 2894 3584 3203 3211 
Q 3513 2838 3513 2113 
z
" transform="scale(0.015625)"/>
      <path id="DejaVuSans-2c" d="M 750 794 
L 1409 794 
L 1409 256 
L 897 -744 
L 494 -744 
L 750 256 
L 750 794 
z
" transform="scale(0.015625)"/>
      <path id="DejaVuSans-20" transform="scale(0.015625)"/>
      <path id="DejaVuSans-6d" d="M 3328 2828 
Q 3544 3216 3844 3400 
Q 4144 3584 4550 3584 
Q 5097 3584 5394 3201 
Q 5691 2819 5691 2113 
L 5691 0 
L 5113 0 
L 5113 2094 
Q 5113 2597 4934 2840 
Q 4756 3084 4391 3084 
Q 3944 3084 3684 2787 
Q 3425 2491 3425 1978 
L 3425 0 
L 2847 0 
L 2847 2094 
Q 2847 2600 2669 2842 
Q 2491 3084 2119 3084 
Q 1678 3084 1418 2786 
Q 1159 2488 1159 1978 
L 1159 0 
L 581 0 
L 581 3500 
L 1159 3500 
L 1159 2956 
Q 1356 3278 1631 3431 
Q 1906 3584 2284 3584 
Q 2666 3584 2933 3390 
Q 3200 3197 3328 2828 
z
" transform="scale(0.015625)"/>
      <path id="DejaVuSans-62" d="M 3116 1747 
Q 3116 2381 2855 2742 
Q 2594 3103 2138 3103 
Q 1681 3103 1420 2742 
Q 1159 2381 1159 1747 
Q 1159 1113 1420 752 
Q 1681 391 2138 391 
Q 2594 391 2855 752 
Q 3116 1113 3116 1747 
z
M 1159 2969 
Q 1341 3281 1617 3432 
Q 1894 3584 2278 3584 
Q 2916 3584 3314 3078 
Q 3713 2572 3713 1747 
Q 3713 922 3314 415 
Q 2916 -91 2278 -91 
Q 1894 -91 1617 61 
Q 1341 213 1159 525 
L 1159 0 
L 581 0 
L 581 4863 
L 1159 4863 
L 1159 2969 
z
" transform="scale(0.015625)"/>
      <path id="DejaVuSans-6c" d="M 603 4863 
L 1178 4863 
L 1178 0 
L 603 0 
L 603 4863 
z
" transform="scale(0.015625)"/>
      <path id="DejaVuSans-65" d="M 3597 1894 
L 3597 1613 
L 953 1613 
Q 991 1019 1311 708 
Q 1631 397 2203 397 
Q 2534 397 2845 478 
Q 3156 559 3463 722 
L 3463 178 
Q 3153 47 2828 -22 
Q 2503 -91 2169 -91 
Q 1331 -91 842 396 
Q 353 884 353 1716 
Q 353 2575 817 3079 
Q 1281 3584 2069 3584 
Q 2775 3584 3186 3129 
Q 3597 2675 3597 1894 
z
M 3022 2063 
Q 3016 2534 2758 2815 
Q 2500 3097 2075 3097 
Q 1594 3097 1305 2825 
Q 1016 2553 972 2059 
L 3022 2063 
z
" transform="scale(0.015625)"/>
      <path id="DejaVuSans-61" d="M 2194 1759 
Q 1497 1759 1228 1600 
Q 959 1441 959 1056 
Q 959 750 1161 570 
Q 1363 391 1709 391 
Q 2188 391 2477 730 
Q 2766 1069 2766 1631 
L 2766 1759 
L 2194 1759 
z
M 3341 1997 
L 3341 0 
L 2766 0 
L 2766 531 
Q 2569 213 2275 61 
Q 1981 -91 1556 -91 
Q 1019 -91 701 211 
Q 384 513 384 1019 
Q 384 1609 779 1909 
Q 1175 2209 1959 2209 
L 2766 2209 
L 2766 2266 
Q 2766 2663 2505 2880 
Q 2244 3097 1772 3097 
Q 1472 3097 1187 3025 
Q 903 2953 641 2809 
L 641 3341 
Q 956 3463 1253 3523 
Q 1550 3584 1831 3584 
Q 2591 3584 2966 3190 
Q 3341 2797 3341 1997 
z
" transform="scale(0.015625)"/>
      <path id="DejaVuSans-70" d="M 1159 525 
L 1159 -1331 
L 581 -1331 
L 581 3500 
L 1159 3500 
L 1159 2969 
Q 1341 3281 1617 3432 
Q 1894 3584 2278 3584 
Q 2916 3584 3314 3078 
Q 3713 2572 3713 1747 
Q 3713 922 3314 415 
Q 2916 -91 2278 -91 
Q 1894 -91 1617 61 
Q 1341 213 1159 525 
z
M 3116 1747 
Q 3116 2381 2855 2742 
Q 2594 3103 2138 3103 
Q 1681 3103 1420 2742 
Q 1159 2381 1159 1747 
Q 1159 1113 1420 752 
Q 1681 391 2138 391 
Q 2594 391 2855 752 
Q 3116 1113 3116 1747 
z
" transform="scale(0.015625)"/>
      <path id="DejaVuSans-76" d="M 191 3500 
L 800 3500 
L 1894 563 
L 2988 3500 
L 3597 3500 
L 2284 0 
L 1503 0 
L 191 3500 
z
" transform="scale(0.015625)"/>
      <path id="DejaVuSans-67" d="M 2906 1791 
Q 2906 2416 2648 2759 
Q 2391 3103 1925 3103 
Q 1463 3103 1205 2759 
Q 947 2416 947 1791 
Q 947 1169 1205 825 
Q 1463 481 1925 481 
Q 2391 481 2648 825 
Q 2906 1169 2906 1791 
z
M 3481 434 
Q 3481 -459 3084 -895 
Q 2688 -1331 1869 -1331 
Q 1566 -1331 1297 -1286 
Q 1028 -1241 775 -1147 
L 775 -588 
Q 1028 -725 1275 -790 
Q 1522 -856 1778 -856 
Q 2344 -856 2625 -561 
Q 2906 -266 2906 331 
L 2906 616 
Q 2728 306 2450 153 
Q 2172 0 1784 0 
Q 1141 0 747 490 
Q 353 981 353 1791 
Q 353 2603 747 3093 
Q 1141 3584 1784 3584 
Q 2172 3584 2450 3431 
Q 2728 3278 2906 2969 
L 2906 3500 
L 3481 3500 
L 3481 434 
z
" transform="scale(0.015625)"/>
      <path id="DejaVuSans-43" d="M 4122 4306 
L 4122 3641 
Q 3803 3938 3442 4084 
Q 3081 4231 2675 4231 
Q 1875 4231 1450 3742 
Q 1025 3253 1025 2328 
Q 1025 1406 1450 917 
Q 1875 428 2675 428 
Q 3081 428 3442 575 
Q 3803 722 4122 1019 
L 4122 359 
Q 3791 134 3420 21 
Q 3050 -91 2638 -91 
Q 1578 -91 968 557 
Q 359 1206 359 2328 
Q 359 3453 968 4101 
Q 1578 4750 2638 4750 
Q 3056 4750 3426 4639 
Q 3797 4528 4122 4306 
z
" transform="scale(0.015625)"/>
      <path id="DejaVuSans-4f" d="M 2522 4238 
Q 1834 4238 1429 3725 
Q 1025 3213 1025 2328 
Q 1025 1447 1429 934 
Q 1834 422 2522 422 
Q 3209 422 3611 934 
Q 4013 1447 4013 2328 
Q 4013 3213 3611 3725 
Q 3209 4238 2522 4238 
z
M 2522 4750 
Q 3503 4750 4090 4092 
Q 4678 3434 4678 2328 
Q 4678 1225 4090 567 
Q 3503 -91 2522 -91 
Q 1538 -91 948 565 
Q 359 1222 359 2328 
Q 359 3434 948 4092 
Q 1538 4750 2522 4750 
z
" transform="scale(0.015625)"/>
      <path id="DejaVuSans-4d" d="M 628 4666 
L 1569 4666 
L 2759 1491 
L 3956 4666 
L 4897 4666 
L 4897 0 
L 4281 0 
L 4281 4097 
L 3078 897 
L 2444 897 
L 1241 4097 
L 1241 0 
L 628 0 
L 628 4666 
z
" transform="scale(0.015625)"/>
      <path id="DejaVuSans-53" d="M 3425 4513 
L 3425 3897 
Q 3066 4069 2747 4153 
Q 2428 4238 2131 4238 
Q 1616 4238 1336 4038 
Q 1056 3838 1056 3469 
Q 1056 3159 1242 3001 
Q 1428 2844 1947 2747 
L 2328 2669 
Q 3034 2534 3370 2195 
Q 3706 1856 3706 1288 
Q 3706 609 3251 259 
Q 2797 -91 1919 -91 
Q 1588 -91 1214 -16 
Q 841 59 441 206 
L 441 856 
Q 825 641 1194 531 
Q 1563 422 1919 422 
Q 2459 422 2753 634 
Q 3047 847 3047 1241 
Q 3047 1584 2836 1778 
Q 2625 1972 2144 2069 
L 1759 2144 
Q 1053 2284 737 2584 
Q 422 2884 422 3419 
Q 422 4038 858 4394 
Q 1294 4750 2059 4750 
Q 2388 4750 2728 4690 
Q 3069 4631 3425 4513 
z
" transform="scale(0.015625)"/>
      <path id="DejaVuSans-4c" d="M 628 4666 
L 1259 4666 
L 1259 531 
L 3531 531 
L 3531 0 
L 628 0 
L 628 4666 
z
" transform="scale(0.015625)"/>
      <path id="DejaVuSans-77" d="M 269 3500 
L 844 3500 
L 1563 769 
L 2278 3500 
L 2956 3500 
L 3675 769 
L 4391 3500 
L 4966 3500 
L 4050 0 
L 3372 0 
L 2619 2869 
L 1863 0 
L 1184 0 
L 269 3500 
z
" transform="scale(0.015625)"/>
      <path id="DejaVuSans-6b" d="M 581 4863 
L 1159 4863 
L 1159 1991 
L 2875 3500 
L 3609 3500 
L 1753 1863 
L 3688 0 
L 2938 0 
L 1159 1709 
L 1159 0 
L 581 0 
L 581 4863 
z
" transform="scale(0.015625)"/>
      <path id="DejaVuSans-2e" d="M 684 794 
L 1344 794 
L 1344 0 
L 684 0 
L 684 794 
z
" transform="scale(0.015625)"/>
     </defs>
     <use xlink:href="#DejaVuSans-44"/>
     <use xlink:href="#DejaVuSans-72" transform="translate(77.001953 0)"/>
     <use xlink:href="#DejaVuSans-69" transform="translate(118.115234 0)"/>
     <use xlink:href="#DejaVuSans-66" transform="translate(145.898438 0)"/>
     <use xlink:href="#DejaVuSans-74" transform="translate(179.353516 0)"/>
     <use xlink:href="#DejaVuSans-2d" transform="translate(218.5625 0)"/>
     <use xlink:href="#DejaVuSans-64" transform="translate(254.646484 0)"/>
     <use xlink:href="#DejaVuSans-69" transform="translate(318.123047 0)"/>
     <use xlink:href="#DejaVuSans-66" transform="translate(345.90625 0)"/>
     <use xlink:href="#DejaVuSans-66" transform="translate(381.111328 0)"/>
     <use xlink:href="#DejaVuSans-75" transform="translate(416.316406 0)"/>
     <use xlink:href="#DejaVuSans-73" transform="translate(479.695312 0)"/>
     <use xlink:href="#DejaVuSans-69" transform="translate(531.794922 0)"/>
     <use xlink:href="#DejaVuSans-6f" transform="translate(559.578125 0)"/>
     <use xlink:href="#DejaVuSans-6e" transform="translate(620.759766 0)"/>
     <use xlink:href="#DejaVuSans-2c" transform="translate(684.138672 0)"/>
     <use xlink:href="#DejaVuSans-20" transform="translate(715.925781 0)"/>
     <use xlink:href="#DejaVuSans-6d" transform="translate(747.712891 0)"/>
     <use xlink:href="#DejaVuSans-6f" transform="translate(845.125 0)"/>
     <use xlink:href="#DejaVuSans-62" transform="translate(906.306641 0)"/>
     <use xlink:href="#DejaVuSans-69" transform="translate(969.783203 0)"/>
     <use xlink:href="#DejaVuSans-6c" transform="translate(997.566406 0)"/>
     <use xlink:href="#DejaVuSans-65" transform="translate(1025.349609 0)"/>
     <use xlink:href="#DejaVuSans-2d" transform="translate(1086.873047 0)"/>
     <use xlink:href="#DejaVuSans-69" transform="translate(1122.957031 0)"/>
     <use xlink:href="#DejaVuSans-6f" transform="translate(1150.740234 0)"/>
     <use xlink:href="#DejaVuSans-6e" transform="translate(1211.921875 0)"/>
     <use xlink:href="#DejaVuSans-20" transform="translate(1275.300781 0)"/>
     <use xlink:href="#DejaVuSans-72" transform="translate(1307.087891 0)"/>
     <use xlink:href="#DejaVuSans-65" transform="translate(1345.951172 0)"/>
     <use xlink:href="#DejaVuSans-64" transform="translate(1407.474609 0)"/>
     <use xlink:href="#DejaVuSans-69" transform="translate(1470.951172 0)"/>
     <use xlink:href="#DejaVuSans-73" transform="translate(1498.734375 0)"/>
     <use xlink:href="#DejaVuSans-74" transform="translate(1550.833984 0)"/>
     <use xlink:href="#DejaVuSans-72" transform="translate(1590.042969 0)"/>
     <use xlink:href="#DejaVuSans-69" transform="translate(1631.15625 0)"/>
     <use xlink:href="#DejaVuSans-62" transform="translate(1658.939453 0)"/>
     <use xlink:href="#DejaVuSans-75" transform="translate(1722.416016 0)"/>
     <use xlink:href="#DejaVuSans-74" transform="translate(1785.794922 0)"/>
     <use xlink:href="#DejaVuSans-69" transform="translate(1825.003906 0)"/>
     <use xlink:href="#DejaVuSans-6f" transform="translate(1852.787109 0)"/>
     <use xlink:href="#DejaVuSans-6e" transform="translate(1913.96875 0)"/>
     <use xlink:href="#DejaVuSans-2c" transform="translate(1977.347656 0)"/>
     <use xlink:href="#DejaVuSans-20" transform="translate(2009.134766 0)"/>
     <use xlink:href="#DejaVuSans-74" transform="translate(2040.921875 0)"/>
     <use xlink:href="#DejaVuSans-72" transform="translate(2080.130859 0)"/>
     <use xlink:href="#DejaVuSans-61" transform="translate(2121.244141 0)"/>
     <use xlink:href="#DejaVuSans-70" transform="translate(2182.523438 0)"/>
     <use xlink:href="#DejaVuSans-20" transform="translate(2246 0)"/>
     <use xlink:href="#DejaVuSans-66" transform="translate(2277.787109 0)"/>
     <use xlink:href="#DejaVuSans-6f" transform="translate(2312.992188 0)"/>
     <use xlink:href="#DejaVuSans-72" transform="translate(2374.173828 0)"/>
     <use xlink:href="#DejaVuSans-6d" transform="translate(2413.537109 0)"/>
     <use xlink:href="#DejaVuSans-61" transform="translate(2510.949219 0)"/>
     <use xlink:href="#DejaVuSans-74" transform="translate(2572.228516 0)"/>
     <use xlink:href="#DejaVuSans-69" transform="translate(2611.4375 0)"/>
     <use xlink:href="#DejaVuSans-6f" transform="translate(2639.220703 0)"/>
     <use xlink:href="#DejaVuSans-6e" transform="translate(2700.402344 0)"/>
     <use xlink:href="#DejaVuSans-2c" transform="translate(2763.78125 0)"/>
     <use xlink:href="#DejaVuSans-20" transform="translate(2795.568359 0)"/>
     <use xlink:href="#DejaVuSans-61" transform="translate(2827.355469 0)"/>
     <use xlink:href="#DejaVuSans-6e" transform="translate(2888.634766 0)"/>
     <use xlink:href="#DejaVuSans-64" transform="translate(2952.013672 0)"/>
     <use xlink:href="#DejaVuSans-20" transform="translate(3015.490234 0)"/>
     <use xlink:href="#DejaVuSans-72" transform="translate(3047.277344 0)"/>
     <use xlink:href="#DejaVuSans-65" transform="translate(3086.140625 0)"/>
     <use xlink:href="#DejaVuSans-73" transform="translate(3147.664062 0)"/>
     <use xlink:href="#DejaVuSans-69" transform="translate(3199.763672 0)"/>
     <use xlink:href="#DejaVuSans-73" transform="translate(3227.546875 0)"/>
     <use xlink:href="#DejaVuSans-74" transform="translate(3279.646484 0)"/>
     <use xlink:href="#DejaVuSans-69" transform="translate(3318.855469 0)"/>
     <use xlink:href="#DejaVuSans-76" transform="translate(3346.638672 0)"/>
     <use xlink:href="#DejaVuSans-65" transform="translate(3405.818359 0)"/>
     <use xlink:href="#DejaVuSans-20" transform="translate(3467.341797 0)"/>
     <use xlink:href="#DejaVuSans-61" transform="translate(3499.128906 0)"/>
     <use xlink:href="#DejaVuSans-67" transform="translate(3560.408203 0)"/>
     <use xlink:href="#DejaVuSans-69" transform="translate(3623.884766 0)"/>
     <use xlink:href="#DejaVuSans-6e" transform="translate(3651.667969 0)"/>
     <use xlink:href="#DejaVuSans-67" transform="translate(3715.046875 0)"/>
     <use xlink:href="#DejaVuSans-20" transform="translate(3778.523438 0)"/>
     <use xlink:href="#DejaVuSans-61" transform="translate(3810.310547 0)"/>
     <use xlink:href="#DejaVuSans-72" transform="translate(3871.589844 0)"/>
     <use xlink:href="#DejaVuSans-65" transform="translate(3910.453125 0)"/>
     <use xlink:href="#DejaVuSans-20" transform="translate(3971.976562 0)"/>
     <use xlink:href="#DejaVuSans-73" transform="translate(4003.763672 0)"/>
     <use xlink:href="#DejaVuSans-6f" transform="translate(4055.863281 0)"/>
     <use xlink:href="#DejaVuSans-6c" transform="translate(4117.044922 0)"/>
     <use xlink:href="#DejaVuSans-76" transform="translate(4144.828125 0)"/>
     <use xlink:href="#DejaVuSans-65" transform="translate(4204.007812 0)"/>
     <use xlink:href="#DejaVuSans-64" transform="translate(4265.53125 0)"/>
     <use xlink:href="#DejaVuSans-20" transform="translate(4329.007812 0)"/>
     <use xlink:href="#DejaVuSans-61" transform="translate(4360.794922 0)"/>
     <use xlink:href="#DejaVuSans-73" transform="translate(4422.074219 0)"/>
     <use xlink:href="#DejaVuSans-20" transform="translate(4474.173828 0)"/>
     <use xlink:href="#DejaVuSans-6f" transform="translate(4505.960938 0)"/>
     <use xlink:href="#DejaVuSans-6e" transform="translate(4567.142578 0)"/>
     <use xlink:href="#DejaVuSans-65" transform="translate(4630.521484 0)"/>
     <use xlink:href="#DejaVuSans-20" transform="translate(4692.044922 0)"/>
     <use xlink:href="#DejaVuSans-43" transform="translate(4723.832031 0)"/>
     <use xlink:href="#DejaVuSans-4f" transform="translate(4793.65625 0)"/>
     <use xlink:href="#DejaVuSans-4d" transform="translate(4872.367188 0)"/>
     <use xlink:href="#DejaVuSans-53" transform="translate(4958.646484 0)"/>
     <use xlink:href="#DejaVuSans-4f" transform="translate(5022.123047 0)"/>
     <use xlink:href="#DejaVuSans-4c" transform="translate(5100.833984 0)"/>
     <use xlink:href="#DejaVuSans-20" transform="translate(5156.546875 0)"/>
     <use xlink:href="#DejaVuSans-77" transform="translate(5188.333984 0)"/>
     <use xlink:href="#DejaVuSans-6f" transform="translate(5270.121094 0)"/>
     <use xlink:href="#DejaVuSans-72" transform="translate(5331.302734 0)"/>
     <use xlink:href="#DejaVuSans-6b" transform="translate(5372.416016 0)"/>
     <use xlink:href="#DejaVuSans-66" transform="translate(5430.326172 0)"/>
     <use xlink:href="#DejaVuSans-6c" transform="translate(5465.53125 0)"/>
     <use xlink:href="#DejaVuSans-6f" transform="translate(5493.314453 0)"/>
     <use xlink:href="#DejaVuSans-77" transform="translate(5554.496094 0)"/>
     <use xlink:href="#DejaVuSans-2e" transform="translate(5627.158203 0)"/>
    </g>
   </g>
   <g id="text_3">
    <!-- Electronic transport -->
    <g transform="translate(45.5904 76.031918) scale(0.1 -0.1)">
     <defs>
      <path id="DejaVuSans-Bold-45" d="M 588 4666 
L 3834 4666 
L 3834 3756 
L 1791 3756 
L 1791 2888 
L 3713 2888 
L 3713 1978 
L 1791 1978 
L 1791 909 
L 3903 909 
L 3903 0 
L 588 0 
L 588 4666 
z
" transform="scale(0.015625)"/>
      <path id="DejaVuSans-Bold-63" d="M 3366 3391 
L 3366 2478 
Q 3138 2634 2908 2709 
Q 2678 2784 2431 2784 
Q 1963 2784 1702 2511 
Q 1441 2238 1441 1747 
Q 1441 1256 1702 982 
Q 1963 709 2431 709 
Q 2694 709 2930 787 
Q 3166 866 3366 1019 
L 3366 103 
Q 3103 6 2833 -42 
Q 2563 -91 2291 -91 
Q 1344 -91 809 395 
Q 275 881 275 1747 
Q 275 2613 809 3098 
Q 1344 3584 2291 3584 
Q 2566 3584 2833 3536 
Q 3100 3488 3366 3391 
z
" transform="scale(0.015625)"/>
      <path id="DejaVuSans-Bold-73" d="M 3272 3391 
L 3272 2541 
Q 2913 2691 2578 2766 
Q 2244 2841 1947 2841 
Q 1628 2841 1473 2761 
Q 1319 2681 1319 2516 
Q 1319 2381 1436 2309 
Q 1553 2238 1856 2203 
L 2053 2175 
Q 2913 2066 3209 1816 
Q 3506 1566 3506 1031 
Q 3506 472 3093 190 
Q 2681 -91 1863 -91 
Q 1516 -91 1145 -36 
Q 775 19 384 128 
L 384 978 
Q 719 816 1070 734 
Q 1422 653 1784 653 
Q 2113 653 2278 743 
Q 2444 834 2444 1013 
Q 2444 1163 2330 1236 
Q 2216 1309 1875 1350 
L 1678 1375 
Q 931 1469 631 1722 
Q 331 1975 331 2491 
Q 331 3047 712 3315 
Q 1094 3584 1881 3584 
Q 2191 3584 2531 3537 
Q 2872 3491 3272 3391 
z
" transform="scale(0.015625)"/>
     </defs>
     <use xlink:href="#DejaVuSans-Bold-45"/>
     <use xlink:href="#DejaVuSans-Bold-6c" transform="translate(68.310547 0)"/>
     <use xlink:href="#DejaVuSans-Bold-65" transform="translate(102.587891 0)"/>
     <use xlink:href="#DejaVuSans-Bold-63" transform="translate(170.410156 0)"/>
     <use xlink:href="#DejaVuSans-Bold-74" transform="translate(229.6875 0)"/>
     <use xlink:href="#DejaVuSans-Bold-72" transform="translate(277.490234 0)"/>
     <use xlink:href="#DejaVuSans-Bold-6f" transform="translate(326.806641 0)"/>
     <use xlink:href="#DejaVuSans-Bold-6e" transform="translate(395.507812 0)"/>
     <use xlink:href="#DejaVuSans-Bold-69" transform="translate(466.699219 0)"/>
     <use xlink:href="#DejaVuSans-Bold-63" transform="translate(500.976562 0)"/>
     <use xlink:href="#DejaVuSans-Bold-20" transform="translate(560.253906 0)"/>
     <use xlink:href="#DejaVuSans-Bold-74" transform="translate(595.068359 0)"/>
     <use xlink:href="#DejaVuSans-Bold-72" transform="translate(642.871094 0)"/>
     <use xlink:href="#DejaVuSans-Bold-61" transform="translate(692.1875 0)"/>
     <use xlink:href="#DejaVuSans-Bold-6e" transform="translate(759.667969 0)"/>
     <use xlink:href="#DejaVuSans-Bold-73" transform="translate(830.859375 0)"/>
     <use xlink:href="#DejaVuSans-Bold-70" transform="translate(890.380859 0)"/>
     <use xlink:href="#DejaVuSans-Bold-6f" transform="translate(961.962891 0)"/>
     <use xlink:href="#DejaVuSans-Bold-72" transform="translate(1030.664062 0)"/>
     <use xlink:href="#DejaVuSans-Bold-74" transform="translate(1079.980469 0)"/>
    </g>
   </g>
   <g id="text_4">
    <!-- Poisson and carrier continuity -->
    <g style="fill: #20242a" transform="translate(45.5904 92.524037) scale(0.077 -0.077)">
     <defs>
      <path id="DejaVuSans-50" d="M 1259 4147 
L 1259 2394 
L 2053 2394 
Q 2494 2394 2734 2622 
Q 2975 2850 2975 3272 
Q 2975 3691 2734 3919 
Q 2494 4147 2053 4147 
L 1259 4147 
z
M 628 4666 
L 2053 4666 
Q 2838 4666 3239 4311 
Q 3641 3956 3641 3272 
Q 3641 2581 3239 2228 
Q 2838 1875 2053 1875 
L 1259 1875 
L 1259 0 
L 628 0 
L 628 4666 
z
" transform="scale(0.015625)"/>
      <path id="DejaVuSans-63" d="M 3122 3366 
L 3122 2828 
Q 2878 2963 2633 3030 
Q 2388 3097 2138 3097 
Q 1578 3097 1268 2742 
Q 959 2388 959 1747 
Q 959 1106 1268 751 
Q 1578 397 2138 397 
Q 2388 397 2633 464 
Q 2878 531 3122 666 
L 3122 134 
Q 2881 22 2623 -34 
Q 2366 -91 2075 -91 
Q 1284 -91 818 406 
Q 353 903 353 1747 
Q 353 2603 823 3093 
Q 1294 3584 2113 3584 
Q 2378 3584 2631 3529 
Q 2884 3475 3122 3366 
z
" transform="scale(0.015625)"/>
      <path id="DejaVuSans-79" d="M 2059 -325 
Q 1816 -950 1584 -1140 
Q 1353 -1331 966 -1331 
L 506 -1331 
L 506 -850 
L 844 -850 
Q 1081 -850 1212 -737 
Q 1344 -625 1503 -206 
L 1606 56 
L 191 3500 
L 800 3500 
L 1894 763 
L 2988 3500 
L 3597 3500 
L 2059 -325 
z
" transform="scale(0.015625)"/>
     </defs>
     <use xlink:href="#DejaVuSans-50"/>
     <use xlink:href="#DejaVuSans-6f" transform="translate(56.677734 0)"/>
     <use xlink:href="#DejaVuSans-69" transform="translate(117.859375 0)"/>
     <use xlink:href="#DejaVuSans-73" transform="translate(145.642578 0)"/>
     <use xlink:href="#DejaVuSans-73" transform="translate(197.742188 0)"/>
     <use xlink:href="#DejaVuSans-6f" transform="translate(249.841797 0)"/>
     <use xlink:href="#DejaVuSans-6e" transform="translate(311.023438 0)"/>
     <use xlink:href="#DejaVuSans-20" transform="translate(374.402344 0)"/>
     <use xlink:href="#DejaVuSans-61" transform="translate(406.189453 0)"/>
     <use xlink:href="#DejaVuSans-6e" transform="translate(467.46875 0)"/>
     <use xlink:href="#DejaVuSans-64" transform="translate(530.847656 0)"/>
     <use xlink:href="#DejaVuSans-20" transform="translate(594.324219 0)"/>
     <use xlink:href="#DejaVuSans-63" transform="translate(626.111328 0)"/>
     <use xlink:href="#DejaVuSans-61" transform="translate(681.091797 0)"/>
     <use xlink:href="#DejaVuSans-72" transform="translate(742.371094 0)"/>
     <use xlink:href="#DejaVuSans-72" transform="translate(781.734375 0)"/>
     <use xlink:href="#DejaVuSans-69" transform="translate(822.847656 0)"/>
     <use xlink:href="#DejaVuSans-65" transform="translate(850.630859 0)"/>
     <use xlink:href="#DejaVuSans-72" transform="translate(912.154297 0)"/>
     <use xlink:href="#DejaVuSans-20" transform="translate(953.267578 0)"/>
     <use xlink:href="#DejaVuSans-63" transform="translate(985.054688 0)"/>
     <use xlink:href="#DejaVuSans-6f" transform="translate(1040.035156 0)"/>
     <use xlink:href="#DejaVuSans-6e" transform="translate(1101.216797 0)"/>
     <use xlink:href="#DejaVuSans-74" transform="translate(1164.595703 0)"/>
     <use xlink:href="#DejaVuSans-69" transform="translate(1203.804688 0)"/>
     <use xlink:href="#DejaVuSans-6e" transform="translate(1231.587891 0)"/>
     <use xlink:href="#DejaVuSans-75" transform="translate(1294.966797 0)"/>
     <use xlink:href="#DejaVuSans-69" transform="translate(1358.345703 0)"/>
     <use xlink:href="#DejaVuSans-74" transform="translate(1386.128906 0)"/>
     <use xlink:href="#DejaVuSans-79" transform="translate(1425.337891 0)"/>
    </g>
    <!-- with SRH recombination and -->
    <g style="fill: #20242a" transform="translate(45.5904 101.438892) scale(0.077 -0.077)">
     <defs>
      <path id="DejaVuSans-68" d="M 3513 2113 
L 3513 0 
L 2938 0 
L 2938 2094 
Q 2938 2591 2744 2837 
Q 2550 3084 2163 3084 
Q 1697 3084 1428 2787 
Q 1159 2491 1159 1978 
L 1159 0 
L 581 0 
L 581 4863 
L 1159 4863 
L 1159 2956 
Q 1366 3272 1645 3428 
Q 1925 3584 2291 3584 
Q 2894 3584 3203 3211 
Q 3513 2838 3513 2113 
z
" transform="scale(0.015625)"/>
      <path id="DejaVuSans-52" d="M 2841 2188 
Q 3044 2119 3236 1894 
Q 3428 1669 3622 1275 
L 4263 0 
L 3584 0 
L 2988 1197 
Q 2756 1666 2539 1819 
Q 2322 1972 1947 1972 
L 1259 1972 
L 1259 0 
L 628 0 
L 628 4666 
L 2053 4666 
Q 2853 4666 3247 4331 
Q 3641 3997 3641 3322 
Q 3641 2881 3436 2590 
Q 3231 2300 2841 2188 
z
M 1259 4147 
L 1259 2491 
L 2053 2491 
Q 2509 2491 2742 2702 
Q 2975 2913 2975 3322 
Q 2975 3731 2742 3939 
Q 2509 4147 2053 4147 
L 1259 4147 
z
" transform="scale(0.015625)"/>
      <path id="DejaVuSans-48" d="M 628 4666 
L 1259 4666 
L 1259 2753 
L 3553 2753 
L 3553 4666 
L 4184 4666 
L 4184 0 
L 3553 0 
L 3553 2222 
L 1259 2222 
L 1259 0 
L 628 0 
L 628 4666 
z
" transform="scale(0.015625)"/>
     </defs>
     <use xlink:href="#DejaVuSans-77"/>
     <use xlink:href="#DejaVuSans-69" transform="translate(81.787109 0)"/>
     <use xlink:href="#DejaVuSans-74" transform="translate(109.570312 0)"/>
     <use xlink:href="#DejaVuSans-68" transform="translate(148.779297 0)"/>
     <use xlink:href="#DejaVuSans-20" transform="translate(212.158203 0)"/>
     <use xlink:href="#DejaVuSans-53" transform="translate(243.945312 0)"/>
     <use xlink:href="#DejaVuSans-52" transform="translate(307.421875 0)"/>
     <use xlink:href="#DejaVuSans-48" transform="translate(376.904297 0)"/>
     <use xlink:href="#DejaVuSans-20" transform="translate(452.099609 0)"/>
     <use xlink:href="#DejaVuSans-72" transform="translate(483.886719 0)"/>
     <use xlink:href="#DejaVuSans-65" transform="translate(522.75 0)"/>
     <use xlink:href="#DejaVuSans-63" transform="translate(584.273438 0)"/>
     <use xlink:href="#DejaVuSans-6f" transform="translate(639.253906 0)"/>
     <use xlink:href="#DejaVuSans-6d" transform="translate(700.435547 0)"/>
     <use xlink:href="#DejaVuSans-62" transform="translate(797.847656 0)"/>
     <use xlink:href="#DejaVuSans-69" transform="translate(861.324219 0)"/>
     <use xlink:href="#DejaVuSans-6e" transform="translate(889.107422 0)"/>
     <use xlink:href="#DejaVuSans-61" transform="translate(952.486328 0)"/>
     <use xlink:href="#DejaVuSans-74" transform="translate(1013.765625 0)"/>
     <use xlink:href="#DejaVuSans-69" transform="translate(1052.974609 0)"/>
     <use xlink:href="#DejaVuSans-6f" transform="translate(1080.757812 0)"/>
     <use xlink:href="#DejaVuSans-6e" transform="translate(1141.939453 0)"/>
     <use xlink:href="#DejaVuSans-20" transform="translate(1205.318359 0)"/>
     <use xlink:href="#DejaVuSans-61" transform="translate(1237.105469 0)"/>
     <use xlink:href="#DejaVuSans-6e" transform="translate(1298.384766 0)"/>
     <use xlink:href="#DejaVuSans-64" transform="translate(1361.763672 0)"/>
    </g>
    <!-- selective contacts. -->
    <g style="fill: #20242a" transform="translate(45.5904 110.353748) scale(0.077 -0.077)">
     <use xlink:href="#DejaVuSans-73"/>
     <use xlink:href="#DejaVuSans-65" transform="translate(52.099609 0)"/>
     <use xlink:href="#DejaVuSans-6c" transform="translate(113.623047 0)"/>
     <use xlink:href="#DejaVuSans-65" transform="translate(141.40625 0)"/>
     <use xlink:href="#DejaVuSans-63" transform="translate(202.929688 0)"/>
     <use xlink:href="#DejaVuSans-74" transform="translate(257.910156 0)"/>
     <use xlink:href="#DejaVuSans-69" transform="translate(297.119141 0)"/>
     <use xlink:href="#DejaVuSans-76" transform="translate(324.902344 0)"/>
     <use xlink:href="#DejaVuSans-65" transform="translate(384.082031 0)"/>
     <use xlink:href="#DejaVuSans-20" transform="translate(445.605469 0)"/>
     <use xlink:href="#DejaVuSans-63" transform="translate(477.392578 0)"/>
     <use xlink:href="#DejaVuSans-6f" transform="translate(532.373047 0)"/>
     <use xlink:href="#DejaVuSans-6e" transform="translate(593.554688 0)"/>
     <use xlink:href="#DejaVuSans-74" transform="translate(656.933594 0)"/>
     <use xlink:href="#DejaVuSans-61" transform="translate(696.142578 0)"/>
     <use xlink:href="#DejaVuSans-63" transform="translate(757.421875 0)"/>
     <use xlink:href="#DejaVuSans-74" transform="translate(812.402344 0)"/>
     <use xlink:href="#DejaVuSans-73" transform="translate(851.611328 0)"/>
     <use xlink:href="#DejaVuSans-2e" transform="translate(903.710938 0)"/>
    </g>
   </g>
   <g id="text_5">
    <!-- Mobile ions -->
    <g transform="translate(199.152 76.031918) scale(0.1 -0.1)">
     <defs>
      <path id="DejaVuSans-Bold-62" d="M 2400 722 
Q 2759 722 2948 984 
Q 3138 1247 3138 1747 
Q 3138 2247 2948 2509 
Q 2759 2772 2400 2772 
Q 2041 2772 1848 2508 
Q 1656 2244 1656 1747 
Q 1656 1250 1848 986 
Q 2041 722 2400 722 
z
M 1656 2988 
Q 1888 3294 2169 3439 
Q 2450 3584 2816 3584 
Q 3463 3584 3878 3070 
Q 4294 2556 4294 1747 
Q 4294 938 3878 423 
Q 3463 -91 2816 -91 
Q 2450 -91 2169 54 
Q 1888 200 1656 506 
L 1656 0 
L 538 0 
L 538 4863 
L 1656 4863 
L 1656 2988 
z
" transform="scale(0.015625)"/>
     </defs>
     <use xlink:href="#DejaVuSans-Bold-4d"/>
     <use xlink:href="#DejaVuSans-Bold-6f" transform="translate(99.511719 0)"/>
     <use xlink:href="#DejaVuSans-Bold-62" transform="translate(168.212891 0)"/>
     <use xlink:href="#DejaVuSans-Bold-69" transform="translate(239.794922 0)"/>
     <use xlink:href="#DejaVuSans-Bold-6c" transform="translate(274.072266 0)"/>
     <use xlink:href="#DejaVuSans-Bold-65" transform="translate(308.349609 0)"/>
     <use xlink:href="#DejaVuSans-Bold-20" transform="translate(376.171875 0)"/>
     <use xlink:href="#DejaVuSans-Bold-69" transform="translate(410.986328 0)"/>
     <use xlink:href="#DejaVuSans-Bold-6f" transform="translate(445.263672 0)"/>
     <use xlink:href="#DejaVuSans-Bold-6e" transform="translate(513.964844 0)"/>
     <use xlink:href="#DejaVuSans-Bold-73" transform="translate(585.15625 0)"/>
    </g>
   </g>
   <g id="text_6">
    <!-- Ion redistribution evolves -->
    <g style="fill: #20242a" transform="translate(199.152 92.524037) scale(0.077 -0.077)">
     <defs>
      <path id="DejaVuSans-49" d="M 628 4666 
L 1259 4666 
L 1259 0 
L 628 0 
L 628 4666 
z
" transform="scale(0.015625)"/>
     </defs>
     <use xlink:href="#DejaVuSans-49"/>
     <use xlink:href="#DejaVuSans-6f" transform="translate(29.492188 0)"/>
     <use xlink:href="#DejaVuSans-6e" transform="translate(90.673828 0)"/>
     <use xlink:href="#DejaVuSans-20" transform="translate(154.052734 0)"/>
     <use xlink:href="#DejaVuSans-72" transform="translate(185.839844 0)"/>
     <use xlink:href="#DejaVuSans-65" transform="translate(224.703125 0)"/>
     <use xlink:href="#DejaVuSans-64" transform="translate(286.226562 0)"/>
     <use xlink:href="#DejaVuSans-69" transform="translate(349.703125 0)"/>
     <use xlink:href="#DejaVuSans-73" transform="translate(377.486328 0)"/>
     <use xlink:href="#DejaVuSans-74" transform="translate(429.585938 0)"/>
     <use xlink:href="#DejaVuSans-72" transform="translate(468.794922 0)"/>
     <use xlink:href="#DejaVuSans-69" transform="translate(509.908203 0)"/>
     <use xlink:href="#DejaVuSans-62" transform="translate(537.691406 0)"/>
     <use xlink:href="#DejaVuSans-75" transform="translate(601.167969 0)"/>
     <use xlink:href="#DejaVuSans-74" transform="translate(664.546875 0)"/>
     <use xlink:href="#DejaVuSans-69" transform="translate(703.755859 0)"/>
     <use xlink:href="#DejaVuSans-6f" transform="translate(731.539062 0)"/>
     <use xlink:href="#DejaVuSans-6e" transform="translate(792.720703 0)"/>
     <use xlink:href="#DejaVuSans-20" transform="translate(856.099609 0)"/>
     <use xlink:href="#DejaVuSans-65" transform="translate(887.886719 0)"/>
     <use xlink:href="#DejaVuSans-76" transform="translate(949.410156 0)"/>
     <use xlink:href="#DejaVuSans-6f" transform="translate(1008.589844 0)"/>
     <use xlink:href="#DejaVuSans-6c" transform="translate(1069.771484 0)"/>
     <use xlink:href="#DejaVuSans-76" transform="translate(1097.554688 0)"/>
     <use xlink:href="#DejaVuSans-65" transform="translate(1156.734375 0)"/>
     <use xlink:href="#DejaVuSans-73" transform="translate(1218.257812 0)"/>
    </g>
    <!-- between scan states and sets -->
    <g style="fill: #20242a" transform="translate(199.152 101.438892) scale(0.077 -0.077)">
     <use xlink:href="#DejaVuSans-62"/>
     <use xlink:href="#DejaVuSans-65" transform="translate(63.476562 0)"/>
     <use xlink:href="#DejaVuSans-74" transform="translate(125 0)"/>
     <use xlink:href="#DejaVuSans-77" transform="translate(164.208984 0)"/>
     <use xlink:href="#DejaVuSans-65" transform="translate(245.996094 0)"/>
     <use xlink:href="#DejaVuSans-65" transform="translate(307.519531 0)"/>
     <use xlink:href="#DejaVuSans-6e" transform="translate(369.042969 0)"/>
     <use xlink:href="#DejaVuSans-20" transform="translate(432.421875 0)"/>
     <use xlink:href="#DejaVuSans-73" transform="translate(464.208984 0)"/>
     <use xlink:href="#DejaVuSans-63" transform="translate(516.308594 0)"/>
     <use xlink:href="#DejaVuSans-61" transform="translate(571.289062 0)"/>
     <use xlink:href="#DejaVuSans-6e" transform="translate(632.568359 0)"/>
     <use xlink:href="#DejaVuSans-20" transform="translate(695.947266 0)"/>
     <use xlink:href="#DejaVuSans-73" transform="translate(727.734375 0)"/>
     <use xlink:href="#DejaVuSans-74" transform="translate(779.833984 0)"/>
     <use xlink:href="#DejaVuSans-61" transform="translate(819.042969 0)"/>
     <use xlink:href="#DejaVuSans-74" transform="translate(880.322266 0)"/>
     <use xlink:href="#DejaVuSans-65" transform="translate(919.53125 0)"/>
     <use xlink:href="#DejaVuSans-73" transform="translate(981.054688 0)"/>
     <use xlink:href="#DejaVuSans-20" transform="translate(1033.154297 0)"/>
     <use xlink:href="#DejaVuSans-61" transform="translate(1064.941406 0)"/>
     <use xlink:href="#DejaVuSans-6e" transform="translate(1126.220703 0)"/>
     <use xlink:href="#DejaVuSans-64" transform="translate(1189.599609 0)"/>
     <use xlink:href="#DejaVuSans-20" transform="translate(1253.076172 0)"/>
     <use xlink:href="#DejaVuSans-73" transform="translate(1284.863281 0)"/>
     <use xlink:href="#DejaVuSans-65" transform="translate(1336.962891 0)"/>
     <use xlink:href="#DejaVuSans-74" transform="translate(1398.486328 0)"/>
     <use xlink:href="#DejaVuSans-73" transform="translate(1437.695312 0)"/>
    </g>
    <!-- preconditioned initial states. -->
    <g style="fill: #20242a" transform="translate(199.152 110.353748) scale(0.077 -0.077)">
     <use xlink:href="#DejaVuSans-70"/>
     <use xlink:href="#DejaVuSans-72" transform="translate(63.476562 0)"/>
     <use xlink:href="#DejaVuSans-65" transform="translate(102.339844 0)"/>
     <use xlink:href="#DejaVuSans-63" transform="translate(163.863281 0)"/>
     <use xlink:href="#DejaVuSans-6f" transform="translate(218.84375 0)"/>
     <use xlink:href="#DejaVuSans-6e" transform="translate(280.025391 0)"/>
     <use xlink:href="#DejaVuSans-64" transform="translate(343.404297 0)"/>
     <use xlink:href="#DejaVuSans-69" transform="translate(406.880859 0)"/>
     <use xlink:href="#DejaVuSans-74" transform="translate(434.664062 0)"/>
     <use xlink:href="#DejaVuSans-69" transform="translate(473.873047 0)"/>
     <use xlink:href="#DejaVuSans-6f" transform="translate(501.65625 0)"/>
     <use xlink:href="#DejaVuSans-6e" transform="translate(562.837891 0)"/>
     <use xlink:href="#DejaVuSans-65" transform="translate(626.216797 0)"/>
     <use xlink:href="#DejaVuSans-64" transform="translate(687.740234 0)"/>
     <use xlink:href="#DejaVuSans-20" transform="translate(751.216797 0)"/>
     <use xlink:href="#DejaVuSans-69" transform="translate(783.003906 0)"/>
     <use xlink:href="#DejaVuSans-6e" transform="translate(810.787109 0)"/>
     <use xlink:href="#DejaVuSans-69" transform="translate(874.166016 0)"/>
     <use xlink:href="#DejaVuSans-74" transform="translate(901.949219 0)"/>
     <use xlink:href="#DejaVuSans-69" transform="translate(941.158203 0)"/>
     <use xlink:href="#DejaVuSans-61" transform="translate(968.941406 0)"/>
     <use xlink:href="#DejaVuSans-6c" transform="translate(1030.220703 0)"/>
     <use xlink:href="#DejaVuSans-20" transform="translate(1058.003906 0)"/>
     <use xlink:href="#DejaVuSans-73" transform="translate(1089.791016 0)"/>
     <use xlink:href="#DejaVuSans-74" transform="translate(1141.890625 0)"/>
     <use xlink:href="#DejaVuSans-61" transform="translate(1181.099609 0)"/>
     <use xlink:href="#DejaVuSans-74" transform="translate(1242.378906 0)"/>
     <use xlink:href="#DejaVuSans-65" transform="translate(1281.587891 0)"/>
     <use xlink:href="#DejaVuSans-73" transform="translate(1343.111328 0)"/>
     <use xlink:href="#DejaVuSans-2e" transform="translate(1395.210938 0)"/>
    </g>
   </g>
   <g id="text_7">
    <!-- Latent damage -->
    <g transform="translate(352.7136 76.031918) scale(0.1 -0.1)">
     <defs>
      <path id="DejaVuSans-Bold-4c" d="M 588 4666 
L 1791 4666 
L 1791 909 
L 3903 909 
L 3903 0 
L 588 0 
L 588 4666 
z
" transform="scale(0.015625)"/>
      <path id="DejaVuSans-Bold-6d" d="M 3781 2919 
Q 3994 3244 4286 3414 
Q 4578 3584 4928 3584 
Q 5531 3584 5847 3212 
Q 6163 2841 6163 2131 
L 6163 0 
L 5038 0 
L 5038 1825 
Q 5041 1866 5042 1909 
Q 5044 1953 5044 2034 
Q 5044 2406 4934 2573 
Q 4825 2741 4581 2741 
Q 4263 2741 4089 2478 
Q 3916 2216 3909 1719 
L 3909 0 
L 2784 0 
L 2784 1825 
Q 2784 2406 2684 2573 
Q 2584 2741 2328 2741 
Q 2006 2741 1831 2477 
Q 1656 2213 1656 1722 
L 1656 0 
L 531 0 
L 531 3500 
L 1656 3500 
L 1656 2988 
Q 1863 3284 2130 3434 
Q 2397 3584 2719 3584 
Q 3081 3584 3359 3409 
Q 3638 3234 3781 2919 
z
" transform="scale(0.015625)"/>
     </defs>
     <use xlink:href="#DejaVuSans-Bold-4c"/>
     <use xlink:href="#DejaVuSans-Bold-61" transform="translate(63.720703 0)"/>
     <use xlink:href="#DejaVuSans-Bold-74" transform="translate(131.201172 0)"/>
     <use xlink:href="#DejaVuSans-Bold-65" transform="translate(179.003906 0)"/>
     <use xlink:href="#DejaVuSans-Bold-6e" transform="translate(246.826172 0)"/>
     <use xlink:href="#DejaVuSans-Bold-74" transform="translate(318.017578 0)"/>
     <use xlink:href="#DejaVuSans-Bold-20" transform="translate(365.820312 0)"/>
     <use xlink:href="#DejaVuSans-Bold-64" transform="translate(400.634766 0)"/>
     <use xlink:href="#DejaVuSans-Bold-61" transform="translate(472.216797 0)"/>
     <use xlink:href="#DejaVuSans-Bold-6d" transform="translate(539.697266 0)"/>
     <use xlink:href="#DejaVuSans-Bold-61" transform="translate(643.896484 0)"/>
     <use xlink:href="#DejaVuSans-Bold-67" transform="translate(711.376953 0)"/>
     <use xlink:href="#DejaVuSans-Bold-65" transform="translate(782.958984 0)"/>
    </g>
   </g>
   <g id="text_8">
    <!-- Trap density, series resistance, -->
    <g style="fill: #20242a" transform="translate(352.7136 92.524037) scale(0.077 -0.077)">
     <defs>
      <path id="DejaVuSans-54" d="M -19 4666 
L 3928 4666 
L 3928 4134 
L 2272 4134 
L 2272 0 
L 1638 0 
L 1638 4134 
L -19 4134 
L -19 4666 
z
" transform="scale(0.015625)"/>
     </defs>
     <use xlink:href="#DejaVuSans-54"/>
     <use xlink:href="#DejaVuSans-72" transform="translate(46.333984 0)"/>
     <use xlink:href="#DejaVuSans-61" transform="translate(87.447266 0)"/>
     <use xlink:href="#DejaVuSans-70" transform="translate(148.726562 0)"/>
     <use xlink:href="#DejaVuSans-20" transform="translate(212.203125 0)"/>
     <use xlink:href="#DejaVuSans-64" transform="translate(243.990234 0)"/>
     <use xlink:href="#DejaVuSans-65" transform="translate(307.466797 0)"/>
     <use xlink:href="#DejaVuSans-6e" transform="translate(368.990234 0)"/>
     <use xlink:href="#DejaVuSans-73" transform="translate(432.369141 0)"/>
     <use xlink:href="#DejaVuSans-69" transform="translate(484.46875 0)"/>
     <use xlink:href="#DejaVuSans-74" transform="translate(512.251953 0)"/>
     <use xlink:href="#DejaVuSans-79" transform="translate(551.460938 0)"/>
     <use xlink:href="#DejaVuSans-2c" transform="translate(610.640625 0)"/>
     <use xlink:href="#DejaVuSans-20" transform="translate(642.427734 0)"/>
     <use xlink:href="#DejaVuSans-73" transform="translate(674.214844 0)"/>
     <use xlink:href="#DejaVuSans-65" transform="translate(726.314453 0)"/>
     <use xlink:href="#DejaVuSans-72" transform="translate(787.837891 0)"/>
     <use xlink:href="#DejaVuSans-69" transform="translate(828.951172 0)"/>
     <use xlink:href="#DejaVuSans-65" transform="translate(856.734375 0)"/>
     <use xlink:href="#DejaVuSans-73" transform="translate(918.257812 0)"/>
     <use xlink:href="#DejaVuSans-20" transform="translate(970.357422 0)"/>
     <use xlink:href="#DejaVuSans-72" transform="translate(1002.144531 0)"/>
     <use xlink:href="#DejaVuSans-65" transform="translate(1041.007812 0)"/>
     <use xlink:href="#DejaVuSans-73" transform="translate(1102.53125 0)"/>
     <use xlink:href="#DejaVuSans-69" transform="translate(1154.630859 0)"/>
     <use xlink:href="#DejaVuSans-73" transform="translate(1182.414062 0)"/>
     <use xlink:href="#DejaVuSans-74" transform="translate(1234.513672 0)"/>
     <use xlink:href="#DejaVuSans-61" transform="translate(1273.722656 0)"/>
     <use xlink:href="#DejaVuSans-6e" transform="translate(1335.001953 0)"/>
     <use xlink:href="#DejaVuSans-63" transform="translate(1398.380859 0)"/>
     <use xlink:href="#DejaVuSans-65" transform="translate(1453.361328 0)"/>
     <use xlink:href="#DejaVuSans-2c" transform="translate(1514.884766 0)"/>
    </g>
    <!-- and shunt resistance evolve -->
    <g style="fill: #20242a" transform="translate(352.7136 101.438892) scale(0.077 -0.077)">
     <use xlink:href="#DejaVuSans-61"/>
     <use xlink:href="#DejaVuSans-6e" transform="translate(61.279297 0)"/>
     <use xlink:href="#DejaVuSans-64" transform="translate(124.658203 0)"/>
     <use xlink:href="#DejaVuSans-20" transform="translate(188.134766 0)"/>
     <use xlink:href="#DejaVuSans-73" transform="translate(219.921875 0)"/>
     <use xlink:href="#DejaVuSans-68" transform="translate(272.021484 0)"/>
     <use xlink:href="#DejaVuSans-75" transform="translate(335.400391 0)"/>
     <use xlink:href="#DejaVuSans-6e" transform="translate(398.779297 0)"/>
     <use xlink:href="#DejaVuSans-74" transform="translate(462.158203 0)"/>
     <use xlink:href="#DejaVuSans-20" transform="translate(501.367188 0)"/>
     <use xlink:href="#DejaVuSans-72" transform="translate(533.154297 0)"/>
     <use xlink:href="#DejaVuSans-65" transform="translate(572.017578 0)"/>
     <use xlink:href="#DejaVuSans-73" transform="translate(633.541016 0)"/>
     <use xlink:href="#DejaVuSans-69" transform="translate(685.640625 0)"/>
     <use xlink:href="#DejaVuSans-73" transform="translate(713.423828 0)"/>
     <use xlink:href="#DejaVuSans-74" transform="translate(765.523438 0)"/>
     <use xlink:href="#DejaVuSans-61" transform="translate(804.732422 0)"/>
     <use xlink:href="#DejaVuSans-6e" transform="translate(866.011719 0)"/>
     <use xlink:href="#DejaVuSans-63" transform="translate(929.390625 0)"/>
     <use xlink:href="#DejaVuSans-65" transform="translate(984.371094 0)"/>
     <use xlink:href="#DejaVuSans-20" transform="translate(1045.894531 0)"/>
     <use xlink:href="#DejaVuSans-65" transform="translate(1077.681641 0)"/>
     <use xlink:href="#DejaVuSans-76" transform="translate(1139.205078 0)"/>
     <use xlink:href="#DejaVuSans-6f" transform="translate(1198.384766 0)"/>
     <use xlink:href="#DejaVuSans-6c" transform="translate(1259.566406 0)"/>
     <use xlink:href="#DejaVuSans-76" transform="translate(1287.349609 0)"/>
     <use xlink:href="#DejaVuSans-65" transform="translate(1346.529297 0)"/>
    </g>
    <!-- with light and temperature. -->
    <g style="fill: #20242a" transform="translate(352.7136 110.353748) scale(0.077 -0.077)">
     <use xlink:href="#DejaVuSans-77"/>
     <use xlink:href="#DejaVuSans-69" transform="translate(81.787109 0)"/>
     <use xlink:href="#DejaVuSans-74" transform="translate(109.570312 0)"/>
     <use xlink:href="#DejaVuSans-68" transform="translate(148.779297 0)"/>
     <use xlink:href="#DejaVuSans-20" transform="translate(212.158203 0)"/>
     <use xlink:href="#DejaVuSans-6c" transform="translate(243.945312 0)"/>
     <use xlink:href="#DejaVuSans-69" transform="translate(271.728516 0)"/>
     <use xlink:href="#DejaVuSans-67" transform="translate(299.511719 0)"/>
     <use xlink:href="#DejaVuSans-68" transform="translate(362.988281 0)"/>
     <use xlink:href="#DejaVuSans-74" transform="translate(426.367188 0)"/>
     <use xlink:href="#DejaVuSans-20" transform="translate(465.576172 0)"/>
     <use xlink:href="#DejaVuSans-61" transform="translate(497.363281 0)"/>
     <use xlink:href="#DejaVuSans-6e" transform="translate(558.642578 0)"/>
     <use xlink:href="#DejaVuSans-64" transform="translate(622.021484 0)"/>
     <use xlink:href="#DejaVuSans-20" transform="translate(685.498047 0)"/>
     <use xlink:href="#DejaVuSans-74" transform="translate(717.285156 0)"/>
     <use xlink:href="#DejaVuSans-65" transform="translate(756.494141 0)"/>
     <use xlink:href="#DejaVuSans-6d" transform="translate(818.017578 0)"/>
     <use xlink:href="#DejaVuSans-70" transform="translate(915.429688 0)"/>
     <use xlink:href="#DejaVuSans-65" transform="translate(978.90625 0)"/>
     <use xlink:href="#DejaVuSans-72" transform="translate(1040.429688 0)"/>
     <use xlink:href="#DejaVuSans-61" transform="translate(1081.542969 0)"/>
     <use xlink:href="#DejaVuSans-74" transform="translate(1142.822266 0)"/>
     <use xlink:href="#DejaVuSans-75" transform="translate(1182.03125 0)"/>
     <use xlink:href="#DejaVuSans-72" transform="translate(1245.410156 0)"/>
     <use xlink:href="#DejaVuSans-65" transform="translate(1284.273438 0)"/>
     <use xlink:href="#DejaVuSans-2e" transform="translate(1345.796875 0)"/>
    </g>
   </g>
   <g id="text_9">
    <!-- Aging protocol -->
    <g transform="translate(122.3712 172.442077) scale(0.1 -0.1)">
     <defs>
      <path id="DejaVuSans-Bold-41" d="M 3419 850 
L 1538 850 
L 1241 0 
L 31 0 
L 1759 4666 
L 3194 4666 
L 4922 0 
L 3713 0 
L 3419 850 
z
M 1838 1716 
L 3116 1716 
L 2478 3572 
L 1838 1716 
z
" transform="scale(0.015625)"/>
     </defs>
     <use xlink:href="#DejaVuSans-Bold-41"/>
     <use xlink:href="#DejaVuSans-Bold-67" transform="translate(77.392578 0)"/>
     <use xlink:href="#DejaVuSans-Bold-69" transform="translate(148.974609 0)"/>
     <use xlink:href="#DejaVuSans-Bold-6e" transform="translate(183.251953 0)"/>
     <use xlink:href="#DejaVuSans-Bold-67" transform="translate(254.443359 0)"/>
     <use xlink:href="#DejaVuSans-Bold-20" transform="translate(326.025391 0)"/>
     <use xlink:href="#DejaVuSans-Bold-70" transform="translate(360.839844 0)"/>
     <use xlink:href="#DejaVuSans-Bold-72" transform="translate(432.421875 0)"/>
     <use xlink:href="#DejaVuSans-Bold-6f" transform="translate(481.738281 0)"/>
     <use xlink:href="#DejaVuSans-Bold-74" transform="translate(550.439453 0)"/>
     <use xlink:href="#DejaVuSans-Bold-6f" transform="translate(598.242188 0)"/>
     <use xlink:href="#DejaVuSans-Bold-63" transform="translate(666.943359 0)"/>
     <use xlink:href="#DejaVuSans-Bold-6f" transform="translate(726.220703 0)"/>
     <use xlink:href="#DejaVuSans-Bold-6c" transform="translate(794.921875 0)"/>
    </g>
   </g>
   <g id="text_10">
    <!-- 1 s simulated aging is reported -->
    <g style="fill: #20242a" transform="translate(122.3712 188.934197) scale(0.077 -0.077)">
     <defs>
      <path id="DejaVuSans-31" d="M 794 531 
L 1825 531 
L 1825 4091 
L 703 3866 
L 703 4441 
L 1819 4666 
L 2450 4666 
L 2450 531 
L 3481 531 
L 3481 0 
L 794 0 
L 794 531 
z
" transform="scale(0.015625)"/>
     </defs>
     <use xlink:href="#DejaVuSans-31"/>
     <use xlink:href="#DejaVuSans-20" transform="translate(63.623047 0)"/>
     <use xlink:href="#DejaVuSans-73" transform="translate(95.410156 0)"/>
     <use xlink:href="#DejaVuSans-20" transform="translate(147.509766 0)"/>
     <use xlink:href="#DejaVuSans-73" transform="translate(179.296875 0)"/>
     <use xlink:href="#DejaVuSans-69" transform="translate(231.396484 0)"/>
     <use xlink:href="#DejaVuSans-6d" transform="translate(259.179688 0)"/>
     <use xlink:href="#DejaVuSans-75" transform="translate(356.591797 0)"/>
     <use xlink:href="#DejaVuSans-6c" transform="translate(419.970703 0)"/>
     <use xlink:href="#DejaVuSans-61" transform="translate(447.753906 0)"/>
     <use xlink:href="#DejaVuSans-74" transform="translate(509.033203 0)"/>
     <use xlink:href="#DejaVuSans-65" transform="translate(548.242188 0)"/>
     <use xlink:href="#DejaVuSans-64" transform="translate(609.765625 0)"/>
     <use xlink:href="#DejaVuSans-20" transform="translate(673.242188 0)"/>
     <use xlink:href="#DejaVuSans-61" transform="translate(705.029297 0)"/>
     <use xlink:href="#DejaVuSans-67" transform="translate(766.308594 0)"/>
     <use xlink:href="#DejaVuSans-69" transform="translate(829.785156 0)"/>
     <use xlink:href="#DejaVuSans-6e" transform="translate(857.568359 0)"/>
     <use xlink:href="#DejaVuSans-67" transform="translate(920.947266 0)"/>
     <use xlink:href="#DejaVuSans-20" transform="translate(984.423828 0)"/>
     <use xlink:href="#DejaVuSans-69" transform="translate(1016.210938 0)"/>
     <use xlink:href="#DejaVuSans-73" transform="translate(1043.994141 0)"/>
     <use xlink:href="#DejaVuSans-20" transform="translate(1096.09375 0)"/>
     <use xlink:href="#DejaVuSans-72" transform="translate(1127.880859 0)"/>
     <use xlink:href="#DejaVuSans-65" transform="translate(1166.744141 0)"/>
     <use xlink:href="#DejaVuSans-70" transform="translate(1228.267578 0)"/>
     <use xlink:href="#DejaVuSans-6f" transform="translate(1291.744141 0)"/>
     <use xlink:href="#DejaVuSans-72" transform="translate(1352.925781 0)"/>
     <use xlink:href="#DejaVuSans-74" transform="translate(1394.039062 0)"/>
     <use xlink:href="#DejaVuSans-65" transform="translate(1433.248047 0)"/>
     <use xlink:href="#DejaVuSans-64" transform="translate(1494.771484 0)"/>
    </g>
    <!-- as 1 h equivalent aging time. -->
    <g style="fill: #20242a" transform="translate(122.3712 197.849052) scale(0.077 -0.077)">
     <defs>
      <path id="DejaVuSans-71" d="M 947 1747 
Q 947 1113 1208 752 
Q 1469 391 1925 391 
Q 2381 391 2643 752 
Q 2906 1113 2906 1747 
Q 2906 2381 2643 2742 
Q 2381 3103 1925 3103 
Q 1469 3103 1208 2742 
Q 947 2381 947 1747 
z
M 2906 525 
Q 2725 213 2448 61 
Q 2172 -91 1784 -91 
Q 1150 -91 751 415 
Q 353 922 353 1747 
Q 353 2572 751 3078 
Q 1150 3584 1784 3584 
Q 2172 3584 2448 3432 
Q 2725 3281 2906 2969 
L 2906 3500 
L 3481 3500 
L 3481 -1331 
L 2906 -1331 
L 2906 525 
z
" transform="scale(0.015625)"/>
     </defs>
     <use xlink:href="#DejaVuSans-61"/>
     <use xlink:href="#DejaVuSans-73" transform="translate(61.279297 0)"/>
     <use xlink:href="#DejaVuSans-20" transform="translate(113.378906 0)"/>
     <use xlink:href="#DejaVuSans-31" transform="translate(145.166016 0)"/>
     <use xlink:href="#DejaVuSans-20" transform="translate(208.789062 0)"/>
     <use xlink:href="#DejaVuSans-68" transform="translate(240.576172 0)"/>
     <use xlink:href="#DejaVuSans-20" transform="translate(303.955078 0)"/>
     <use xlink:href="#DejaVuSans-65" transform="translate(335.742188 0)"/>
     <use xlink:href="#DejaVuSans-71" transform="translate(397.265625 0)"/>
     <use xlink:href="#DejaVuSans-75" transform="translate(460.742188 0)"/>
     <use xlink:href="#DejaVuSans-69" transform="translate(524.121094 0)"/>
     <use xlink:href="#DejaVuSans-76" transform="translate(551.904297 0)"/>
     <use xlink:href="#DejaVuSans-61" transform="translate(611.083984 0)"/>
     <use xlink:href="#DejaVuSans-6c" transform="translate(672.363281 0)"/>
     <use xlink:href="#DejaVuSans-65" transform="translate(700.146484 0)"/>
     <use xlink:href="#DejaVuSans-6e" transform="translate(761.669922 0)"/>
     <use xlink:href="#DejaVuSans-74" transform="translate(825.048828 0)"/>
     <use xlink:href="#DejaVuSans-20" transform="translate(864.257812 0)"/>
     <use xlink:href="#DejaVuSans-61" transform="translate(896.044922 0)"/>
     <use xlink:href="#DejaVuSans-67" transform="translate(957.324219 0)"/>
     <use xlink:href="#DejaVuSans-69" transform="translate(1020.800781 0)"/>
     <use xlink:href="#DejaVuSans-6e" transform="translate(1048.583984 0)"/>
     <use xlink:href="#DejaVuSans-67" transform="translate(1111.962891 0)"/>
     <use xlink:href="#DejaVuSans-20" transform="translate(1175.439453 0)"/>
     <use xlink:href="#DejaVuSans-74" transform="translate(1207.226562 0)"/>
     <use xlink:href="#DejaVuSans-69" transform="translate(1246.435547 0)"/>
     <use xlink:href="#DejaVuSans-6d" transform="translate(1274.21875 0)"/>
     <use xlink:href="#DejaVuSans-65" transform="translate(1371.630859 0)"/>
     <use xlink:href="#DejaVuSans-2e" transform="translate(1433.154297 0)"/>
    </g>
    <!-- J-V scans are sampled at stops. -->
    <g style="fill: #20242a" transform="translate(122.3712 206.763908) scale(0.077 -0.077)">
     <defs>
      <path id="DejaVuSans-4a" d="M 628 4666 
L 1259 4666 
L 1259 325 
Q 1259 -519 939 -900 
Q 619 -1281 -91 -1281 
L -331 -1281 
L -331 -750 
L -134 -750 
Q 284 -750 456 -515 
Q 628 -281 628 325 
L 628 4666 
z
" transform="scale(0.015625)"/>
      <path id="DejaVuSans-56" d="M 1831 0 
L 50 4666 
L 709 4666 
L 2188 738 
L 3669 4666 
L 4325 4666 
L 2547 0 
L 1831 0 
z
" transform="scale(0.015625)"/>
     </defs>
     <use xlink:href="#DejaVuSans-4a"/>
     <use xlink:href="#DejaVuSans-2d" transform="translate(25.867188 0)"/>
     <use xlink:href="#DejaVuSans-56" transform="translate(56.076172 0)"/>
     <use xlink:href="#DejaVuSans-20" transform="translate(124.484375 0)"/>
     <use xlink:href="#DejaVuSans-73" transform="translate(156.271484 0)"/>
     <use xlink:href="#DejaVuSans-63" transform="translate(208.371094 0)"/>
     <use xlink:href="#DejaVuSans-61" transform="translate(263.351562 0)"/>
     <use xlink:href="#DejaVuSans-6e" transform="translate(324.630859 0)"/>
     <use xlink:href="#DejaVuSans-73" transform="translate(388.009766 0)"/>
     <use xlink:href="#DejaVuSans-20" transform="translate(440.109375 0)"/>
     <use xlink:href="#DejaVuSans-61" transform="translate(471.896484 0)"/>
     <use xlink:href="#DejaVuSans-72" transform="translate(533.175781 0)"/>
     <use xlink:href="#DejaVuSans-65" transform="translate(572.039062 0)"/>
     <use xlink:href="#DejaVuSans-20" transform="translate(633.5625 0)"/>
     <use xlink:href="#DejaVuSans-73" transform="translate(665.349609 0)"/>
     <use xlink:href="#DejaVuSans-61" transform="translate(717.449219 0)"/>
     <use xlink:href="#DejaVuSans-6d" transform="translate(778.728516 0)"/>
     <use xlink:href="#DejaVuSans-70" transform="translate(876.140625 0)"/>
     <use xlink:href="#DejaVuSans-6c" transform="translate(939.617188 0)"/>
     <use xlink:href="#DejaVuSans-65" transform="translate(967.400391 0)"/>
     <use xlink:href="#DejaVuSans-64" transform="translate(1028.923828 0)"/>
     <use xlink:href="#DejaVuSans-20" transform="translate(1092.400391 0)"/>
     <use xlink:href="#DejaVuSans-61" transform="translate(1124.1875 0)"/>
     <use xlink:href="#DejaVuSans-74" transform="translate(1185.466797 0)"/>
     <use xlink:href="#DejaVuSans-20" transform="translate(1224.675781 0)"/>
     <use xlink:href="#DejaVuSans-73" transform="translate(1256.462891 0)"/>
     <use xlink:href="#DejaVuSans-74" transform="translate(1308.5625 0)"/>
     <use xlink:href="#DejaVuSans-6f" transform="translate(1347.771484 0)"/>
     <use xlink:href="#DejaVuSans-70" transform="translate(1408.953125 0)"/>
     <use xlink:href="#DejaVuSans-73" transform="translate(1472.429688 0)"/>
     <use xlink:href="#DejaVuSans-2e" transform="translate(1524.529297 0)"/>
    </g>
   </g>
   <g id="text_11">
    <!-- Extracted outputs -->
    <g transform="translate(290.3292 172.442077) scale(0.1 -0.1)">
     <defs>
      <path id="DejaVuSans-Bold-78" d="M 1422 1791 
L 159 3500 
L 1344 3500 
L 2059 2463 
L 2784 3500 
L 3969 3500 
L 2706 1797 
L 4031 0 
L 2847 0 
L 2059 1106 
L 1281 0 
L 97 0 
L 1422 1791 
z
" transform="scale(0.015625)"/>
     </defs>
     <use xlink:href="#DejaVuSans-Bold-45"/>
     <use xlink:href="#DejaVuSans-Bold-78" transform="translate(68.310547 0)"/>
     <use xlink:href="#DejaVuSans-Bold-74" transform="translate(132.8125 0)"/>
     <use xlink:href="#DejaVuSans-Bold-72" transform="translate(180.615234 0)"/>
     <use xlink:href="#DejaVuSans-Bold-61" transform="translate(229.931641 0)"/>
     <use xlink:href="#DejaVuSans-Bold-63" transform="translate(297.412109 0)"/>
     <use xlink:href="#DejaVuSans-Bold-74" transform="translate(356.689453 0)"/>
     <use xlink:href="#DejaVuSans-Bold-65" transform="translate(404.492188 0)"/>
     <use xlink:href="#DejaVuSans-Bold-64" transform="translate(472.314453 0)"/>
     <use xlink:href="#DejaVuSans-Bold-20" transform="translate(543.896484 0)"/>
     <use xlink:href="#DejaVuSans-Bold-6f" transform="translate(578.710938 0)"/>
     <use xlink:href="#DejaVuSans-Bold-75" transform="translate(647.412109 0)"/>
     <use xlink:href="#DejaVuSans-Bold-74" transform="translate(718.603516 0)"/>
     <use xlink:href="#DejaVuSans-Bold-70" transform="translate(766.40625 0)"/>
     <use xlink:href="#DejaVuSans-Bold-75" transform="translate(837.988281 0)"/>
     <use xlink:href="#DejaVuSans-Bold-74" transform="translate(909.179688 0)"/>
     <use xlink:href="#DejaVuSans-Bold-73" transform="translate(956.982422 0)"/>
    </g>
   </g>
   <g id="text_12">
    <!-- PCE, Jsc, Voc when available, -->
    <g style="fill: #20242a" transform="translate(290.3292 188.934197) scale(0.077 -0.077)">
     <defs>
      <path id="DejaVuSans-45" d="M 628 4666 
L 3578 4666 
L 3578 4134 
L 1259 4134 
L 1259 2753 
L 3481 2753 
L 3481 2222 
L 1259 2222 
L 1259 531 
L 3634 531 
L 3634 0 
L 628 0 
L 628 4666 
z
" transform="scale(0.015625)"/>
     </defs>
     <use xlink:href="#DejaVuSans-50"/>
     <use xlink:href="#DejaVuSans-43" transform="translate(60.302734 0)"/>
     <use xlink:href="#DejaVuSans-45" transform="translate(130.126953 0)"/>
     <use xlink:href="#DejaVuSans-2c" transform="translate(193.310547 0)"/>
     <use xlink:href="#DejaVuSans-20" transform="translate(225.097656 0)"/>
     <use xlink:href="#DejaVuSans-4a" transform="translate(256.884766 0)"/>
     <use xlink:href="#DejaVuSans-73" transform="translate(286.376953 0)"/>
     <use xlink:href="#DejaVuSans-63" transform="translate(338.476562 0)"/>
     <use xlink:href="#DejaVuSans-2c" transform="translate(393.457031 0)"/>
     <use xlink:href="#DejaVuSans-20" transform="translate(425.244141 0)"/>
     <use xlink:href="#DejaVuSans-56" transform="translate(457.03125 0)"/>
     <use xlink:href="#DejaVuSans-6f" transform="translate(517.689453 0)"/>
     <use xlink:href="#DejaVuSans-63" transform="translate(578.871094 0)"/>
     <use xlink:href="#DejaVuSans-20" transform="translate(633.851562 0)"/>
     <use xlink:href="#DejaVuSans-77" transform="translate(665.638672 0)"/>
     <use xlink:href="#DejaVuSans-68" transform="translate(747.425781 0)"/>
     <use xlink:href="#DejaVuSans-65" transform="translate(810.804688 0)"/>
     <use xlink:href="#DejaVuSans-6e" transform="translate(872.328125 0)"/>
     <use xlink:href="#DejaVuSans-20" transform="translate(935.707031 0)"/>
     <use xlink:href="#DejaVuSans-61" transform="translate(967.494141 0)"/>
     <use xlink:href="#DejaVuSans-76" transform="translate(1028.773438 0)"/>
     <use xlink:href="#DejaVuSans-61" transform="translate(1087.953125 0)"/>
     <use xlink:href="#DejaVuSans-69" transform="translate(1149.232422 0)"/>
     <use xlink:href="#DejaVuSans-6c" transform="translate(1177.015625 0)"/>
     <use xlink:href="#DejaVuSans-61" transform="translate(1204.798828 0)"/>
     <use xlink:href="#DejaVuSans-62" transform="translate(1266.078125 0)"/>
     <use xlink:href="#DejaVuSans-6c" transform="translate(1329.554688 0)"/>
     <use xlink:href="#DejaVuSans-65" transform="translate(1357.337891 0)"/>
     <use xlink:href="#DejaVuSans-2c" transform="translate(1418.861328 0)"/>
    </g>
    <!-- FF, J-V curves, band diagrams, -->
    <g style="fill: #20242a" transform="translate(290.3292 197.849052) scale(0.077 -0.077)">
     <defs>
      <path id="DejaVuSans-46" d="M 628 4666 
L 3309 4666 
L 3309 4134 
L 1259 4134 
L 1259 2759 
L 3109 2759 
L 3109 2228 
L 1259 2228 
L 1259 0 
L 628 0 
L 628 4666 
z
" transform="scale(0.015625)"/>
     </defs>
     <use xlink:href="#DejaVuSans-46"/>
     <use xlink:href="#DejaVuSans-46" transform="translate(57.519531 0)"/>
     <use xlink:href="#DejaVuSans-2c" transform="translate(115.039062 0)"/>
     <use xlink:href="#DejaVuSans-20" transform="translate(146.826172 0)"/>
     <use xlink:href="#DejaVuSans-4a" transform="translate(178.613281 0)"/>
     <use xlink:href="#DejaVuSans-2d" transform="translate(204.480469 0)"/>
     <use xlink:href="#DejaVuSans-56" transform="translate(234.689453 0)"/>
     <use xlink:href="#DejaVuSans-20" transform="translate(303.097656 0)"/>
     <use xlink:href="#DejaVuSans-63" transform="translate(334.884766 0)"/>
     <use xlink:href="#DejaVuSans-75" transform="translate(389.865234 0)"/>
     <use xlink:href="#DejaVuSans-72" transform="translate(453.244141 0)"/>
     <use xlink:href="#DejaVuSans-76" transform="translate(494.357422 0)"/>
     <use xlink:href="#DejaVuSans-65" transform="translate(553.537109 0)"/>
     <use xlink:href="#DejaVuSans-73" transform="translate(615.060547 0)"/>
     <use xlink:href="#DejaVuSans-2c" transform="translate(667.160156 0)"/>
     <use xlink:href="#DejaVuSans-20" transform="translate(698.947266 0)"/>
     <use xlink:href="#DejaVuSans-62" transform="translate(730.734375 0)"/>
     <use xlink:href="#DejaVuSans-61" transform="translate(794.210938 0)"/>
     <use xlink:href="#DejaVuSans-6e" transform="translate(855.490234 0)"/>
     <use xlink:href="#DejaVuSans-64" transform="translate(918.869141 0)"/>
     <use xlink:href="#DejaVuSans-20" transform="translate(982.345703 0)"/>
     <use xlink:href="#DejaVuSans-64" transform="translate(1014.132812 0)"/>
     <use xlink:href="#DejaVuSans-69" transform="translate(1077.609375 0)"/>
     <use xlink:href="#DejaVuSans-61" transform="translate(1105.392578 0)"/>
     <use xlink:href="#DejaVuSans-67" transform="translate(1166.671875 0)"/>
     <use xlink:href="#DejaVuSans-72" transform="translate(1230.148438 0)"/>
     <use xlink:href="#DejaVuSans-61" transform="translate(1271.261719 0)"/>
     <use xlink:href="#DejaVuSans-6d" transform="translate(1332.541016 0)"/>
     <use xlink:href="#DejaVuSans-73" transform="translate(1429.953125 0)"/>
     <use xlink:href="#DejaVuSans-2c" transform="translate(1482.052734 0)"/>
    </g>
    <!-- and spatial state profiles. -->
    <g style="fill: #20242a" transform="translate(290.3292 206.763908) scale(0.077 -0.077)">
     <use xlink:href="#DejaVuSans-61"/>
     <use xlink:href="#DejaVuSans-6e" transform="translate(61.279297 0)"/>
     <use xlink:href="#DejaVuSans-64" transform="translate(124.658203 0)"/>
     <use xlink:href="#DejaVuSans-20" transform="translate(188.134766 0)"/>
     <use xlink:href="#DejaVuSans-73" transform="translate(219.921875 0)"/>
     <use xlink:href="#DejaVuSans-70" transform="translate(272.021484 0)"/>
     <use xlink:href="#DejaVuSans-61" transform="translate(335.498047 0)"/>
     <use xlink:href="#DejaVuSans-74" transform="translate(396.777344 0)"/>
     <use xlink:href="#DejaVuSans-69" transform="translate(435.986328 0)"/>
     <use xlink:href="#DejaVuSans-61" transform="translate(463.769531 0)"/>
     <use xlink:href="#DejaVuSans-6c" transform="translate(525.048828 0)"/>
     <use xlink:href="#DejaVuSans-20" transform="translate(552.832031 0)"/>
     <use xlink:href="#DejaVuSans-73" transform="translate(584.619141 0)"/>
     <use xlink:href="#DejaVuSans-74" transform="translate(636.71875 0)"/>
     <use xlink:href="#DejaVuSans-61" transform="translate(675.927734 0)"/>
     <use xlink:href="#DejaVuSans-74" transform="translate(737.207031 0)"/>
     <use xlink:href="#DejaVuSans-65" transform="translate(776.416016 0)"/>
     <use xlink:href="#DejaVuSans-20" transform="translate(837.939453 0)"/>
     <use xlink:href="#DejaVuSans-70" transform="translate(869.726562 0)"/>
     <use xlink:href="#DejaVuSans-72" transform="translate(933.203125 0)"/>
     <use xlink:href="#DejaVuSans-6f" transform="translate(972.066406 0)"/>
     <use xlink:href="#DejaVuSans-66" transform="translate(1033.248047 0)"/>
     <use xlink:href="#DejaVuSans-69" transform="translate(1068.453125 0)"/>
     <use xlink:href="#DejaVuSans-6c" transform="translate(1096.236328 0)"/>
     <use xlink:href="#DejaVuSans-65" transform="translate(1124.019531 0)"/>
     <use xlink:href="#DejaVuSans-73" transform="translate(1185.542969 0)"/>
     <use xlink:href="#DejaVuSans-2e" transform="translate(1237.642578 0)"/>
    </g>
   </g>
   <g id="text_13">
    <!-- Voltage -->
    <g transform="translate(85.247825 261.361346) scale(0.07 -0.07)">
     <use xlink:href="#DejaVuSans-56"/>
     <use xlink:href="#DejaVuSans-6f" transform="translate(60.658203 0)"/>
     <use xlink:href="#DejaVuSans-6c" transform="translate(121.839844 0)"/>
     <use xlink:href="#DejaVuSans-74" transform="translate(149.623047 0)"/>
     <use xlink:href="#DejaVuSans-61" transform="translate(188.832031 0)"/>
     <use xlink:href="#DejaVuSans-67" transform="translate(250.111328 0)"/>
     <use xlink:href="#DejaVuSans-65" transform="translate(313.587891 0)"/>
    </g>
   </g>
   <g id="text_14">
    <!-- Current -->
    <g transform="translate(20.140619 243.129234) rotate(-90) scale(0.07 -0.07)">
     <use xlink:href="#DejaVuSans-43"/>
     <use xlink:href="#DejaVuSans-75" transform="translate(69.824219 0)"/>
     <use xlink:href="#DejaVuSans-72" transform="translate(133.203125 0)"/>
     <use xlink:href="#DejaVuSans-72" transform="translate(172.566406 0)"/>
     <use xlink:href="#DejaVuSans-65" transform="translate(211.429688 0)"/>
     <use xlink:href="#DejaVuSans-6e" transform="translate(272.953125 0)"/>
     <use xlink:href="#DejaVuSans-74" transform="translate(336.332031 0)"/>
    </g>
   </g>
   <g id="text_15">
    <!-- J-V -->
    <g transform="translate(47.9898 226.94451) scale(0.08 -0.08)">
     <defs>
      <path id="DejaVuSans-Bold-4a" d="M 588 4666 
L 1791 4666 
L 1791 453 
Q 1791 -419 1317 -850 
Q 844 -1281 -116 -1281 
L -359 -1281 
L -359 -372 
L -172 -372 
Q 203 -372 395 -162 
Q 588 47 588 453 
L 588 4666 
z
" transform="scale(0.015625)"/>
      <path id="DejaVuSans-Bold-2d" d="M 347 2297 
L 2309 2297 
L 2309 1388 
L 347 1388 
L 347 2297 
z
" transform="scale(0.015625)"/>
      <path id="DejaVuSans-Bold-56" d="M 31 4666 
L 1241 4666 
L 2478 1222 
L 3713 4666 
L 4922 4666 
L 3194 0 
L 1759 0 
L 31 4666 
z
" transform="scale(0.015625)"/>
     </defs>
     <use xlink:href="#DejaVuSans-Bold-4a"/>
     <use xlink:href="#DejaVuSans-Bold-2d" transform="translate(37.207031 0)"/>
     <use xlink:href="#DejaVuSans-Bold-56" transform="translate(71.460938 0)"/>
    </g>
   </g>
   <g id="text_16">
    <!-- hysteresis -->
    <g transform="translate(203.9508 226.94451) scale(0.08 -0.08)">
     <defs>
      <path id="DejaVuSans-Bold-68" d="M 4056 2131 
L 4056 0 
L 2931 0 
L 2931 347 
L 2931 1625 
Q 2931 2084 2911 2256 
Q 2891 2428 2841 2509 
Q 2775 2619 2662 2680 
Q 2550 2741 2406 2741 
Q 2056 2741 1856 2470 
Q 1656 2200 1656 1722 
L 1656 0 
L 538 0 
L 538 4863 
L 1656 4863 
L 1656 2988 
Q 1909 3294 2193 3439 
Q 2478 3584 2822 3584 
Q 3428 3584 3742 3212 
Q 4056 2841 4056 2131 
z
" transform="scale(0.015625)"/>
      <path id="DejaVuSans-Bold-79" d="M 78 3500 
L 1197 3500 
L 2138 1125 
L 2938 3500 
L 4056 3500 
L 2584 -331 
Q 2363 -916 2067 -1148 
Q 1772 -1381 1288 -1381 
L 641 -1381 
L 641 -647 
L 991 -647 
Q 1275 -647 1404 -556 
Q 1534 -466 1606 -231 
L 1638 -134 
L 78 3500 
z
" transform="scale(0.015625)"/>
     </defs>
     <use xlink:href="#DejaVuSans-Bold-68"/>
     <use xlink:href="#DejaVuSans-Bold-79" transform="translate(71.191406 0)"/>
     <use xlink:href="#DejaVuSans-Bold-73" transform="translate(136.376953 0)"/>
     <use xlink:href="#DejaVuSans-Bold-74" transform="translate(195.898438 0)"/>
     <use xlink:href="#DejaVuSans-Bold-65" transform="translate(243.701172 0)"/>
     <use xlink:href="#DejaVuSans-Bold-72" transform="translate(311.523438 0)"/>
     <use xlink:href="#DejaVuSans-Bold-65" transform="translate(360.839844 0)"/>
     <use xlink:href="#DejaVuSans-Bold-73" transform="translate(428.662109 0)"/>
     <use xlink:href="#DejaVuSans-Bold-69" transform="translate(488.183594 0)"/>
     <use xlink:href="#DejaVuSans-Bold-73" transform="translate(522.460938 0)"/>
    </g>
   </g>
   <g id="text_17">
    <!-- F/R scans -->
    <g transform="translate(278.088806 240.338606) scale(0.066 -0.066)">
     <defs>
      <path id="DejaVuSans-2f" d="M 1625 4666 
L 2156 4666 
L 531 -594 
L 0 -594 
L 1625 4666 
z
" transform="scale(0.015625)"/>
     </defs>
     <use xlink:href="#DejaVuSans-46"/>
     <use xlink:href="#DejaVuSans-2f" transform="translate(57.519531 0)"/>
     <use xlink:href="#DejaVuSans-52" transform="translate(91.210938 0)"/>
     <use xlink:href="#DejaVuSans-20" transform="translate(160.693359 0)"/>
     <use xlink:href="#DejaVuSans-73" transform="translate(192.480469 0)"/>
     <use xlink:href="#DejaVuSans-63" transform="translate(244.580078 0)"/>
     <use xlink:href="#DejaVuSans-61" transform="translate(299.560547 0)"/>
     <use xlink:href="#DejaVuSans-6e" transform="translate(360.839844 0)"/>
     <use xlink:href="#DejaVuSans-73" transform="translate(424.21875 0)"/>
    </g>
   </g>
   <g id="text_18">
    <!-- Traceability -->
    <g transform="translate(352.7136 226.07712) scale(0.085 -0.085)">
     <defs>
      <path id="DejaVuSans-Bold-54" d="M 31 4666 
L 4331 4666 
L 4331 3756 
L 2784 3756 
L 2784 0 
L 1581 0 
L 1581 3756 
L 31 3756 
L 31 4666 
z
" transform="scale(0.015625)"/>
     </defs>
     <use xlink:href="#DejaVuSans-Bold-54"/>
     <use xlink:href="#DejaVuSans-Bold-72" transform="translate(57.212891 0)"/>
     <use xlink:href="#DejaVuSans-Bold-61" transform="translate(106.529297 0)"/>
     <use xlink:href="#DejaVuSans-Bold-63" transform="translate(174.009766 0)"/>
     <use xlink:href="#DejaVuSans-Bold-65" transform="translate(233.287109 0)"/>
     <use xlink:href="#DejaVuSans-Bold-61" transform="translate(301.109375 0)"/>
     <use xlink:href="#DejaVuSans-Bold-62" transform="translate(368.589844 0)"/>
     <use xlink:href="#DejaVuSans-Bold-69" transform="translate(440.171875 0)"/>
     <use xlink:href="#DejaVuSans-Bold-6c" transform="translate(474.449219 0)"/>
     <use xlink:href="#DejaVuSans-Bold-69" transform="translate(508.726562 0)"/>
     <use xlink:href="#DejaVuSans-Bold-74" transform="translate(543.003906 0)"/>
     <use xlink:href="#DejaVuSans-Bold-79" transform="translate(590.806641 0)"/>
    </g>
   </g>
   <g id="text_19">
    <!-- Every thesis figure is generated -->
    <g transform="translate(352.7136 240.743859) scale(0.073 -0.073)">
     <use xlink:href="#DejaVuSans-45"/>
     <use xlink:href="#DejaVuSans-76" transform="translate(63.183594 0)"/>
     <use xlink:href="#DejaVuSans-65" transform="translate(122.363281 0)"/>
     <use xlink:href="#DejaVuSans-72" transform="translate(183.886719 0)"/>
     <use xlink:href="#DejaVuSans-79" transform="translate(225 0)"/>
     <use xlink:href="#DejaVuSans-20" transform="translate(284.179688 0)"/>
     <use xlink:href="#DejaVuSans-74" transform="translate(315.966797 0)"/>
     <use xlink:href="#DejaVuSans-68" transform="translate(355.175781 0)"/>
     <use xlink:href="#DejaVuSans-65" transform="translate(418.554688 0)"/>
     <use xlink:href="#DejaVuSans-73" transform="translate(480.078125 0)"/>
     <use xlink:href="#DejaVuSans-69" transform="translate(532.177734 0)"/>
     <use xlink:href="#DejaVuSans-73" transform="translate(559.960938 0)"/>
     <use xlink:href="#DejaVuSans-20" transform="translate(612.060547 0)"/>
     <use xlink:href="#DejaVuSans-66" transform="translate(643.847656 0)"/>
     <use xlink:href="#DejaVuSans-69" transform="translate(679.052734 0)"/>
     <use xlink:href="#DejaVuSans-67" transform="translate(706.835938 0)"/>
     <use xlink:href="#DejaVuSans-75" transform="translate(770.3125 0)"/>
     <use xlink:href="#DejaVuSans-72" transform="translate(833.691406 0)"/>
     <use xlink:href="#DejaVuSans-65" transform="translate(872.554688 0)"/>
     <use xlink:href="#DejaVuSans-20" transform="translate(934.078125 0)"/>
     <use xlink:href="#DejaVuSans-69" transform="translate(965.865234 0)"/>
     <use xlink:href="#DejaVuSans-73" transform="translate(993.648438 0)"/>
     <use xlink:href="#DejaVuSans-20" transform="translate(1045.748047 0)"/>
     <use xlink:href="#DejaVuSans-67" transform="translate(1077.535156 0)"/>
     <use xlink:href="#DejaVuSans-65" transform="translate(1141.011719 0)"/>
     <use xlink:href="#DejaVuSans-6e" transform="translate(1202.535156 0)"/>
     <use xlink:href="#DejaVuSans-65" transform="translate(1265.914062 0)"/>
     <use xlink:href="#DejaVuSans-72" transform="translate(1327.4375 0)"/>
     <use xlink:href="#DejaVuSans-61" transform="translate(1368.550781 0)"/>
     <use xlink:href="#DejaVuSans-74" transform="translate(1429.830078 0)"/>
     <use xlink:href="#DejaVuSans-65" transform="translate(1469.039062 0)"/>
     <use xlink:href="#DejaVuSans-64" transform="translate(1530.5625 0)"/>
    </g>
    <!-- from canonical CSV exports and -->
    <g transform="translate(352.7136 248.918262) scale(0.073 -0.073)">
     <defs>
      <path id="DejaVuSans-78" d="M 3513 3500 
L 2247 1797 
L 3578 0 
L 2900 0 
L 1881 1375 
L 863 0 
L 184 0 
L 1544 1831 
L 300 3500 
L 978 3500 
L 1906 2253 
L 2834 3500 
L 3513 3500 
z
" transform="scale(0.015625)"/>
     </defs>
     <use xlink:href="#DejaVuSans-66"/>
     <use xlink:href="#DejaVuSans-72" transform="translate(35.205078 0)"/>
     <use xlink:href="#DejaVuSans-6f" transform="translate(74.068359 0)"/>
     <use xlink:href="#DejaVuSans-6d" transform="translate(135.25 0)"/>
     <use xlink:href="#DejaVuSans-20" transform="translate(232.662109 0)"/>
     <use xlink:href="#DejaVuSans-63" transform="translate(264.449219 0)"/>
     <use xlink:href="#DejaVuSans-61" transform="translate(319.429688 0)"/>
     <use xlink:href="#DejaVuSans-6e" transform="translate(380.708984 0)"/>
     <use xlink:href="#DejaVuSans-6f" transform="translate(444.087891 0)"/>
     <use xlink:href="#DejaVuSans-6e" transform="translate(505.269531 0)"/>
     <use xlink:href="#DejaVuSans-69" transform="translate(568.648438 0)"/>
     <use xlink:href="#DejaVuSans-63" transform="translate(596.431641 0)"/>
     <use xlink:href="#DejaVuSans-61" transform="translate(651.412109 0)"/>
     <use xlink:href="#DejaVuSans-6c" transform="translate(712.691406 0)"/>
     <use xlink:href="#DejaVuSans-20" transform="translate(740.474609 0)"/>
     <use xlink:href="#DejaVuSans-43" transform="translate(772.261719 0)"/>
     <use xlink:href="#DejaVuSans-53" transform="translate(842.085938 0)"/>
     <use xlink:href="#DejaVuSans-56" transform="translate(905.5625 0)"/>
     <use xlink:href="#DejaVuSans-20" transform="translate(973.970703 0)"/>
     <use xlink:href="#DejaVuSans-65" transform="translate(1005.757812 0)"/>
     <use xlink:href="#DejaVuSans-78" transform="translate(1065.53125 0)"/>
     <use xlink:href="#DejaVuSans-70" transform="translate(1124.710938 0)"/>
     <use xlink:href="#DejaVuSans-6f" transform="translate(1188.1875 0)"/>
     <use xlink:href="#DejaVuSans-72" transform="translate(1249.369141 0)"/>
     <use xlink:href="#DejaVuSans-74" transform="translate(1290.482422 0)"/>
     <use xlink:href="#DejaVuSans-73" transform="translate(1329.691406 0)"/>
     <use xlink:href="#DejaVuSans-20" transform="translate(1381.791016 0)"/>
     <use xlink:href="#DejaVuSans-61" transform="translate(1413.578125 0)"/>
     <use xlink:href="#DejaVuSans-6e" transform="translate(1474.857422 0)"/>
     <use xlink:href="#DejaVuSans-64" transform="translate(1538.236328 0)"/>
    </g>
    <!-- versioned scripts. -->
    <g transform="translate(352.7136 257.092666) scale(0.073 -0.073)">
     <use xlink:href="#DejaVuSans-76"/>
     <use xlink:href="#DejaVuSans-65" transform="translate(59.179688 0)"/>
     <use xlink:href="#DejaVuSans-72" transform="translate(120.703125 0)"/>
     <use xlink:href="#DejaVuSans-73" transform="translate(161.816406 0)"/>
     <use xlink:href="#DejaVuSans-69" transform="translate(213.916016 0)"/>
     <use xlink:href="#DejaVuSans-6f" transform="translate(241.699219 0)"/>
     <use xlink:href="#DejaVuSans-6e" transform="translate(302.880859 0)"/>
     <use xlink:href="#DejaVuSans-65" transform="translate(366.259766 0)"/>
     <use xlink:href="#DejaVuSans-64" transform="translate(427.783203 0)"/>
     <use xlink:href="#DejaVuSans-20" transform="translate(491.259766 0)"/>
     <use xlink:href="#DejaVuSans-73" transform="translate(523.046875 0)"/>
     <use xlink:href="#DejaVuSans-63" transform="translate(575.146484 0)"/>
     <use xlink:href="#DejaVuSans-72" transform="translate(630.126953 0)"/>
     <use xlink:href="#DejaVuSans-69" transform="translate(671.240234 0)"/>
     <use xlink:href="#DejaVuSans-70" transform="translate(699.023438 0)"/>
     <use xlink:href="#DejaVuSans-74" transform="translate(762.5 0)"/>
     <use xlink:href="#DejaVuSans-73" transform="translate(801.708984 0)"/>
     <use xlink:href="#DejaVuSans-2e" transform="translate(853.808594 0)"/>
    </g>
   </g>
  </g>
 </g>
 <defs>
  <clipPath id="p5d6a1dea7e">
   <rect x="7.2" y="7.2" width="479.88" height="260.568"/>
  </clipPath>
 </defs>
</svg>
